<svg width="588" height="97" viewBox="0 0 588 97" fill="none" xmlns="http://www.w3.org/2000/svg">
<g filter="url(#filter0_d_11_2)">
<path d="M31.24 88.22C27.1333 88.22 23.1667 86.4467 19.34 82.9C18.78 82.7133 18.3133 82.2933 17.94 81.64C17.5667 81.08 17.1933 80.6133 16.82 80.24C16.1667 80.0533 15.7467 79.7733 15.56 79.4C15.3733 79.0267 15.1867 78.56 15 78C15 77.9067 14.9067 77.7667 14.72 77.58C14.6267 77.4867 14.5333 77.3933 14.44 77.3C14.3467 77.2067 14.2533 77.1133 14.16 77.02C14.0667 77.02 14.02 77.02 14.02 77.02C14.1133 76.9267 14.16 76.88 14.16 76.88C13.7867 76.1333 13.5533 75.62 13.46 75.34C13.3667 74.9667 12.9933 74.5 12.34 73.94C12.1533 73.7533 11.9667 73.4733 11.78 73.1C11.6867 72.6333 11.5933 72.26 11.5 71.98C10.4733 69.5533 9.54 67.08 8.7 64.56C7.95333 61.9467 7.58 59.2867 7.58 56.58C7.58 55.6467 7.86 54.9467 8.42 54.48C8.98 54.0133 9.58667 53.78 10.24 53.78C11.4533 53.78 12.2467 54.3867 12.62 55.6C12.8067 55.9733 12.9933 56.3933 13.18 56.86C13.46 57.2333 13.6 57.6067 13.6 57.98V59.38C13.6 59.94 13.74 60.08 14.02 59.8C14.3933 59.4267 14.6267 59.4733 14.72 59.94C14.9067 60.5933 15.0467 61.0133 15.14 61.2C15.2333 61.2933 15.6067 61.5267 16.26 61.9C16.4467 62.2733 16.68 62.6467 16.96 63.02C17.24 63.3933 17.52 63.7667 17.8 64.14V64.42C17.8 64.98 17.9867 65.4 18.36 65.68C18.7333 65.8667 19.1533 66.1 19.62 66.38L21.44 68.34C21.3467 68.5267 21.3 68.7133 21.3 68.9C21.3 69.46 21.58 69.8333 22.14 70.02C22.7933 70.2067 23.3533 70.3933 23.82 70.58C23.9133 70.6733 24.4267 71.14 25.36 71.98C26.3867 72.7267 27.0867 73.1933 27.46 73.38C27.9267 73.66 28.44 73.9867 29 74.36C29.56 74.64 30.12 74.8733 30.68 75.06C30.8667 75.06 31.0533 75.1533 31.24 75.34C32.92 75.9933 34.46 76.32 35.86 76.32C37.1667 76.32 38.66 76.04 40.34 75.48C40.62 75.3867 40.8533 75.34 41.04 75.34C41.32 75.2467 41.5067 75.2 41.6 75.2C41.88 75.2 42.02 75.2933 42.02 75.48C42.02 75.9467 41.6 76.4133 40.76 76.88C40.76 77.0667 40.62 77.16 40.34 77.16C39.9667 77.2533 39.5933 77.3933 39.22 77.58C38.8467 77.7667 38.4733 77.8133 38.1 77.72C37.6333 77.72 37.26 77.6733 36.98 77.58C36.7 77.4867 36.3267 77.6267 35.86 78C34.6467 77.9067 33.2933 77.6267 31.8 77.16C30.3067 76.6933 29.0467 76.18 28.02 75.62C27.9267 74.9667 27.5067 74.64 26.76 74.64C26.0133 74.5467 25.4067 74.3133 24.94 73.94C24.5667 73.4733 24.24 72.96 23.96 72.4C23.7733 71.84 23.3067 71.7933 22.56 72.26C22.1867 71.8867 21.86 71.6067 21.58 71.42C21.3 71.14 20.88 71 20.32 71C20.1333 70.8133 19.8533 70.6267 19.48 70.44C19.2 70.2533 19.1067 69.9733 19.2 69.6C18.8267 69.32 18.08 68.8533 16.96 68.2C15.9333 67.4533 15.3267 66.9867 15.14 66.8C14.3 65.8667 13.3667 65.0733 12.34 64.42L11.92 64.14C13.1333 67.78 14.58 71.3267 16.26 74.78C18.0333 78.2333 20.6 81.0333 23.96 83.18C25.5467 84.1133 26.9933 84.86 28.3 85.42C29.7 86.0733 31.0533 86.4 32.36 86.4C34.7867 86.4 37.3533 85.1867 40.06 82.76C42.3933 80.6133 44.4933 78.0467 46.36 75.06C48.2267 71.98 49.9067 68.76 51.4 65.4C52.8933 62.04 54.2 58.9133 55.32 56.02C55.5067 55.8333 55.6467 55.6933 55.74 55.6C55.8333 55.5067 55.9267 55.4133 56.02 55.32C56.3 54.6667 56.4867 53.92 56.58 53.08C56.7667 52.1467 56.9533 51.3533 57.14 50.7C57.6067 50.14 58.0267 49.4867 58.4 48.74C58.8667 47.9 59.1 47.1067 59.1 46.36L59.38 45.66C59.5667 45.5667 59.52 45.4267 59.24 45.24C58.96 45.0533 59.1467 44.9133 59.8 44.82C60.4533 43.7933 60.8267 42.7667 60.92 41.74C61.1067 40.62 61.3867 39.8267 61.76 39.36C62.04 38.8933 62.32 38.4733 62.6 38.1C62.88 37.7267 62.9267 37.26 62.74 36.7C62.8333 36.3267 63.1133 35.44 63.58 34.04C64.14 32.5467 64.7467 30.9133 65.4 29.14C66.0533 27.3667 66.6133 25.8267 67.08 24.52C67.5467 23.12 67.78 22.3267 67.78 22.14L69.32 18.08C66.7067 18.1733 64 18.3133 61.2 18.5C58.4933 18.6867 55.8333 19.1067 53.22 19.76C53.3133 19.6667 53.2667 19.5733 53.08 19.48C52.8933 19.2933 52.7533 19.2 52.66 19.2L52.52 19.06C52.1467 18.9667 52.0533 19.06 52.24 19.34C52.52 19.5267 52.4733 19.7133 52.1 19.9C51.26 19.9933 50.28 20.2267 49.16 20.6C48.1333 20.88 47.2 21.02 46.36 21.02C45.9867 21.1133 45.5667 21.16 45.1 21.16C44.6333 21.0667 44.1667 21.02 43.7 21.02C42.3 21.1133 40.9 21.4867 39.5 22.14C38.1933 22.7933 36.84 23.3533 35.44 23.82L32.92 24.52C31.8933 24.9867 30.7733 25.3133 29.56 25.5C28.3467 25.6867 27.2267 26.0133 26.2 26.48L26.34 26.62C25.9667 26.9 25.5 27.0867 24.94 27.18C24.38 27.2733 23.8667 27.4133 23.4 27.6C22.28 27.9733 21.1133 28.44 19.9 29C18.78 29.4667 17.6133 29.8867 16.4 30.26C15.7467 30.4467 15.0933 30.6333 14.44 30.82C13.88 30.9133 13.2267 31.1 12.48 31.38C12.1067 31.4733 11.78 31.5667 11.5 31.66C11.22 31.66 10.8933 31.66 10.52 31.66C9.68 31.66 8.93333 31.4733 8.28 31.1C7.90667 30.9133 7.34667 30.4 6.6 29.56C5.94667 28.6267 5.38667 27.6933 4.92 26.76C4.45333 25.7333 4.26667 24.9867 4.36 24.52C4.45333 24.24 5.06 23.9133 6.18 23.54C7.3 23.0733 8.60667 22.6533 10.1 22.28C11.5933 21.8133 12.9467 21.44 14.16 21.16C15.4667 20.7867 16.3067 20.5533 16.68 20.46C16.8667 20.3667 17.38 20.2733 18.22 20.18C19.06 19.9933 19.5267 20.0867 19.62 20.46C19.7133 20.6467 19.62 20.9267 19.34 21.3C19.06 21.58 18.8267 21.8133 18.64 22C18.64 22.0933 18.5 22.28 18.22 22.56C18.0333 22.84 18.0333 22.9333 18.22 22.84L23.12 21.58C23.8667 21.3933 24.7533 21.3467 25.78 21.44C26.9 21.44 27.74 21.2533 28.3 20.88C28.4867 20.6933 28.58 20.5067 28.58 20.32C28.6733 20.1333 28.86 20.04 29.14 20.04C29.7933 19.8533 30.8667 19.6667 32.36 19.48C33.9467 19.2933 34.9267 19.0133 35.3 18.64C36.0467 18.4533 36.84 18.36 37.68 18.36C38.52 18.2667 39.2667 18.0333 39.92 17.66C40.2 17.5667 41.0867 17.38 42.58 17.1C44.1667 16.82 45.94 16.54 47.9 16.26C49.9533 15.8867 51.7733 15.6067 53.36 15.42C54.9467 15.14 55.88 15 56.16 15H56.3C56.6733 15 57.0467 14.9533 57.42 14.86C57.7933 14.7667 58.1667 14.72 58.54 14.72C59.2867 14.72 59.66 15.0467 59.66 15.7C59.7533 15.7933 59.9867 15.84 60.36 15.84C61.2 15.84 61.8533 15.6067 62.32 15.14C62.6933 15.0467 62.9733 14.9067 63.16 14.72C63.44 14.5333 63.7667 14.3933 64.14 14.3C65.1667 14.1133 66.24 14.0667 67.36 14.16C68.5733 14.16 69.6467 14.16 70.58 14.16C71.2333 12.76 71.9333 11.8267 72.68 11.36C73.4267 10.8 74.5467 10.52 76.04 10.52C77.0667 10.52 77.72 11.0333 78 12.06C78.28 12.9933 78.42 13.8333 78.42 14.58C78.8867 14.58 79.4933 14.58 80.24 14.58C80.9867 14.4867 81.78 14.44 82.62 14.44C83.46 14.44 84.2533 14.4867 85 14.58C85.84 14.6733 86.4933 14.8133 86.96 15C87.0533 14.72 87.2867 14.6267 87.66 14.72C88.1267 14.72 88.4533 14.7667 88.64 14.86C89.3867 15.2333 90.18 15.42 91.02 15.42C91.9533 15.3267 92.84 15.4667 93.68 15.84C94.52 16.12 95.3133 16.4467 96.06 16.82C96.8067 17.1933 97.6 17.52 98.44 17.8C99.1867 17.9867 99.7467 18.2667 100.12 18.64C100.587 19.0133 101.147 19.4333 101.8 19.9C102.547 20.46 103.013 20.9733 103.2 21.44C103.2 21.44 103.247 21.6267 103.34 22C103.433 22.28 103.34 22.3733 103.06 22.28C102.967 22.28 102.827 22.28 102.64 22.28C102.547 22.1867 102.453 22.1867 102.36 22.28C102.36 22.6533 102.5 22.98 102.78 23.26C102.967 23.3533 103.153 23.3533 103.34 23.26C103.62 23.1667 103.807 23.0733 103.9 22.98C104.273 22.98 104.46 23.1667 104.46 23.54C104.553 23.9133 104.647 24.2867 104.74 24.66C105.02 25.78 105.16 26.9 105.16 28.02C105.16 29.2333 104.833 30.5867 104.18 32.08C103.62 33.5733 102.827 34.88 101.8 36C100.773 37.0267 99.56 37.54 98.16 37.54C97.6933 37.54 97.32 37.4933 97.04 37.4C96.0133 37.12 95.5 36.84 95.5 36.56C95.5 36.28 95.9667 35.8133 96.9 35.16C97.5533 34.6933 98.1133 34.18 98.58 33.62C99.0467 32.9667 99.4667 32.3133 99.84 31.66C100.493 31.1933 101.007 30.26 101.38 28.86C101.753 27.46 101.94 26.1533 101.94 24.94C101.94 24.0067 101.8 23.26 101.52 22.7C101.427 22.7 101.007 22.1867 100.26 21.16C99.6067 20.1333 98.8133 19.5733 97.88 19.48C97.4133 19.2933 96.9 19.1067 96.34 18.92C95.8733 18.7333 95.4067 18.5933 94.94 18.5C94.5667 18.1267 93.82 17.8467 92.7 17.66C91.6733 17.4733 90.6 17.3333 89.48 17.24C88.36 17.1467 87.52 17.1 86.96 17.1C86.4933 17.1 85.6533 17.1467 84.44 17.24C83.2267 17.24 82.0133 17.2867 80.8 17.38C79.5867 17.38 78.7467 17.38 78.28 17.38C77.44 19.8067 75.9933 21.2533 73.94 21.72C73.8467 22 73.4733 22.98 72.82 24.66C72.1667 26.34 71.4667 28.2067 70.72 30.26C69.9733 32.22 69.2733 33.9933 68.62 35.58C68.06 37.0733 67.7333 37.9133 67.64 38.1C67.36 38.4733 67.08 38.8467 66.8 39.22C66.52 39.5933 66.3333 40.0133 66.24 40.48C66.1467 41.4133 65.7267 42.72 64.98 44.4C64.3267 46.08 63.58 47.76 62.74 49.44C61.9933 51.0267 61.3867 52.3333 60.92 53.36C60.36 53.7333 59.8933 54.06 59.52 54.34C59.1467 54.5267 59.24 54.9467 59.8 55.6C59.52 56.2533 59.24 56.58 58.96 56.58C58.68 56.4867 58.3067 56.3933 57.84 56.3C57.9333 56.7667 58.0733 57.0933 58.26 57.28C58.4467 57.3733 58.5867 57.6533 58.68 58.12C57.9333 59.8 57 61.8533 55.88 64.28C54.76 66.6133 53.64 68.48 52.52 69.88C51.8667 70.16 51.3533 70.44 50.98 70.72C50.6067 71 50.6067 71.56 50.98 72.4C50.7933 72.5867 50.6533 72.82 50.56 73.1C50.4667 73.38 50.3733 73.66 50.28 73.94L49.16 75.62C48.7867 75.9 48.4133 76.2267 48.04 76.6C47.6667 76.88 47.48 77.3467 47.48 78C47.1067 78.56 46.78 78.98 46.5 79.26C45.94 79.4467 45.4733 79.68 45.1 79.96C44.7267 80.24 44.54 80.7533 44.54 81.5C42.6733 83.5533 40.5733 85.1867 38.24 86.4C36 87.6133 33.6667 88.22 31.24 88.22ZM87.1197 83.04C86.933 82.48 86.8397 81.92 86.8397 81.36C86.8397 81.08 86.8864 80.8 86.9797 80.52C86.9797 80.3333 87.0264 80.1 87.1197 79.82C87.213 79.54 87.4464 78.7933 87.8197 77.58C88.2864 76.3667 88.7064 75.1067 89.0797 73.8C89.5464 72.4933 89.873 71.7467 90.0597 71.56C90.0597 71.56 90.3397 70.86 90.8997 69.46C91.553 67.9667 92.253 66.4267 92.9997 64.84C93.7464 63.16 94.3064 62.0867 94.6797 61.62C95.1464 60.5933 95.8464 59.3333 96.7797 57.84C97.8064 56.2533 98.7864 54.3867 99.7197 52.24V51.54C99.7197 51.26 99.7197 51.0267 99.7197 50.84C99.813 50.56 99.9064 50.28 99.9997 50C100.373 49.2533 100.7 48.74 100.98 48.46C101.353 48.18 101.726 47.6667 102.1 46.92C102.1 46.7333 102.1 46.5467 102.1 46.36C102.193 46.1733 102.286 45.9867 102.38 45.8C102.193 45.9867 102.146 45.8467 102.24 45.38C102.053 45.38 102.24 44.9133 102.8 43.98C103.173 43.14 103.453 42.6733 103.64 42.58H103.78C104.153 42.02 104.48 41.5533 104.76 41.18C105.04 40.7133 105.133 40.4333 105.04 40.34V40.06C105.04 39.4067 105.226 38.8 105.6 38.24C106.066 37.68 106.486 37.0733 106.86 36.42C107.14 36.0467 107.373 35.86 107.56 35.86C107.746 35.86 107.84 35.9067 107.84 36C107.933 36 108.026 36 108.12 36C108.4 36 108.54 35.7667 108.54 35.3C108.54 35.1133 108.493 34.88 108.4 34.6C108.4 34.32 108.353 33.9933 108.26 33.62C108.353 33.1533 108.726 32.78 109.38 32.5L109.8 32.36C110.266 30.4 110.826 29.0933 111.48 28.44C111.666 28.2533 111.853 28.0667 112.04 27.88C112.226 27.6933 112.413 27.5067 112.6 27.32C113.72 26.1067 114.56 24.8 115.12 23.4C115.306 23.0267 115.54 22.7467 115.82 22.56C116.193 22.28 116.52 21.9533 116.8 21.58C116.986 21.3 117.033 21.02 116.94 20.74C116.94 20.3667 116.986 20.04 117.08 19.76C117.546 19.0133 117.873 18.5933 118.06 18.5C118.246 18.4067 118.433 18.3133 118.62 18.22C118.9 18.0333 119.366 17.6133 120.02 16.96C120.3 16.4933 120.58 16.0267 120.86 15.56C121.233 15.0933 121.606 14.6267 121.98 14.16C122.54 13.5067 123.146 13.04 123.8 12.76C124.453 12.48 125.106 12.06 125.76 11.5C125.946 11.3133 126.04 11.0333 126.04 10.66C126.04 10.1933 126.133 9.86666 126.32 9.68C129.586 7.06666 133.086 4.87333 136.82 3.1C140.646 1.32666 143.586 0.439997 145.64 0.439997C146.386 0.439997 147.086 0.486663 147.74 0.579995C148.486 0.673328 149.186 0.813329 149.84 0.999998H150.12C150.586 0.999998 151.053 1.09333 151.52 1.27999C151.986 1.46666 152.406 1.65333 152.78 1.84C153.153 1.84 153.62 1.93333 154.18 2.11999C154.646 2.30666 154.926 2.58666 155.02 2.96C155.113 3.33333 155.02 3.61333 154.74 3.8C154.646 3.89333 154.506 3.89333 154.32 3.8C154.133 3.70666 153.946 3.66 153.76 3.66C153.573 3.66 153.386 3.56666 153.2 3.37999C153.013 3.19333 152.826 3.05333 152.64 2.96C152.266 2.96 151.846 3.00666 151.38 3.1C151.006 3.19333 150.586 3.23999 150.12 3.23999H149.7C149.046 3.23999 148.58 3.14666 148.3 2.96C148.113 2.68 147.646 2.63333 146.9 2.82C146.806 2.82 146.526 2.86667 146.06 2.96C145.593 3.05333 145.266 3.1 145.08 3.1C141.72 3.94 138.78 5.34 136.26 7.3C133.74 9.16667 131.5 11.2667 129.54 13.6C127.673 15.9333 125.853 18.1733 124.08 20.32C123.24 22 122.4 23.3533 121.56 24.38C121.466 24.4733 121.373 24.4267 121.28 24.24C121.186 24.0533 121.093 24.0533 121 24.24C120.72 24.52 120.486 24.9867 120.3 25.64C120.206 26.2 120.02 26.6667 119.74 27.04C119.646 27.1333 119.553 27.0867 119.46 26.9C119.366 26.7133 119.226 26.7133 119.04 26.9C118.946 26.9933 118.806 27.3667 118.62 28.02C118.526 28.58 118.386 28.9533 118.2 29.14C117.08 30.6333 115.866 32.08 114.56 33.48C113.253 34.88 111.946 36.5133 110.64 38.38C108.773 41.2733 107 44.12 105.32 46.92C103.64 49.72 101.866 52.8 99.9997 56.16C99.3464 57.28 98.833 58.3067 98.4597 59.24C98.1797 60.08 97.853 60.8733 97.4797 61.62C97.293 61.9 97.1997 62.2733 97.1997 62.74C97.1997 63.3933 97.573 63.72 98.3197 63.72C98.8797 63.72 99.4397 63.58 99.9997 63.3L101.96 62.46H102.24C102.52 62.46 102.706 62.6 102.8 62.88C102.986 63.0667 102.8 63.3467 102.24 63.72C101.866 63.9067 101.633 64.14 101.54 64.42C101.446 64.7 101.213 65.0733 100.84 65.54C100.653 65.7267 100.373 66.0533 99.9997 66.52C99.7197 66.9867 99.5797 67.2667 99.5797 67.36C99.4864 67.64 99.3464 67.7333 99.1597 67.64C99.0664 67.5467 98.7864 67.6867 98.3197 68.06C98.2264 68.1533 98.133 68.34 98.0397 68.62C98.0397 68.9 97.993 69.1333 97.8997 69.32C97.8064 69.6 97.6197 69.8333 97.3397 70.02C97.153 70.1133 97.0597 70.2067 97.0597 70.3C96.9664 70.6733 96.7797 70.9067 96.4997 71C96.313 71 96.1264 71.0933 95.9397 71.28C95.8464 71.3733 95.8464 71.5133 95.9397 71.7C96.033 71.8867 95.9864 72.0733 95.7997 72.26L94.3997 75.2C94.3064 75.3867 94.1664 75.5733 93.9797 75.76C93.8864 75.9467 93.7464 76.0867 93.5597 76.18C93.4664 76.18 93.2797 76.1333 92.9997 76.04C92.813 75.9467 92.7197 75.9933 92.7197 76.18C92.6264 76.2733 92.6264 76.5533 92.7197 77.02C92.9064 77.3933 92.8597 77.6733 92.5797 77.86C92.2997 78.0467 92.0197 78.42 91.7397 78.98C91.553 79.6333 91.3664 80.0533 91.1797 80.24C90.8064 80.6133 90.4797 80.8467 90.1997 80.94C89.9197 81.1267 89.6397 81.4067 89.3597 81.78C89.2664 81.8733 88.9397 82.2467 88.3797 82.9C87.8197 83.6467 87.3997 83.6933 87.1197 83.04ZM130.52 78.42C130.24 78.42 129.96 78.42 129.68 78.42C129.4 78.42 129.12 78.3733 128.84 78.28C127.16 77.9067 125.806 76.8333 124.78 75.06C123.846 73.1933 123.1 71.0467 122.54 68.62C122.073 66.1 121.746 63.6267 121.56 61.2C121.466 58.68 121.42 56.6267 121.42 55.04C121.326 52.52 120.673 51.26 119.46 51.26C118.9 51.26 118.246 51.4933 117.5 51.96C117.406 52.1467 117.22 52.2867 116.94 52.38C116.753 52.38 116.473 52.4733 116.1 52.66L115.68 53.08C115.68 53.1733 115.586 53.22 115.4 53.22C115.213 53.1267 115.12 53.1267 115.12 53.22C115.213 53.8733 115.026 54.06 114.56 53.78C114 54.1533 113.58 54.48 113.3 54.76C113.3 54.8533 113.206 54.9933 113.02 55.18L112.88 55.32C112.786 55.4133 112.693 55.5533 112.6 55.74C112.506 55.8333 112.32 55.8333 112.04 55.74L111.62 56.16C111.62 56.2533 111.573 56.3933 111.48 56.58C111.386 56.7667 111.2 56.8133 110.92 56.72L110.22 57.28C109.753 58.0267 109.286 58.4 108.82 58.4L107.84 59.66L107.42 59.8C107.42 60.1733 107.093 60.4533 106.44 60.64C106.346 60.7333 106.02 60.9667 105.46 61.34C104.9 61.62 104.62 61.76 104.62 61.76C104.433 61.6667 104.2 61.62 103.92 61.62C103.733 61.62 103.826 61.34 104.2 60.78C104.293 60.5933 104.48 60.4533 104.76 60.36C105.04 60.1733 105.366 59.8933 105.74 59.52C106.02 59.1467 106.253 58.7733 106.44 58.4C106.72 58.0267 106.906 57.84 107 57.84L109.38 55.74C109.566 56.1133 109.66 56.1133 109.66 55.74C109.66 55.3667 109.753 55.2267 109.94 55.32C110.22 54.9467 110.5 54.62 110.78 54.34C111.153 54.06 111.526 53.78 111.9 53.5C111.9 53.4067 112.086 53.22 112.46 52.94C112.833 52.7533 113.066 52.66 113.16 52.66C113.253 52.66 113.44 52.4733 113.72 52.1L114.56 51.54C114.653 51.3533 114.746 51.3533 114.84 51.54C115.026 51.7267 115.166 51.7733 115.26 51.68L115.4 50.84C115.493 50.56 115.726 50.3267 116.1 50.14C116.566 49.9533 116.986 49.72 117.36 49.44C118.293 48.5067 119.04 48.04 119.6 48.04C119.693 48.1333 119.88 48.1333 120.16 48.04C120.906 47.6667 121.84 47.48 122.96 47.48C124.36 47.48 125.526 47.9933 126.46 49.02C126.74 49.3 127.02 49.72 127.3 50.28C127.3 50.28 127.393 50.56 127.58 51.12L127.86 52.24C128.046 52.7067 127.906 53.0333 127.44 53.22C127.906 53.5933 128.093 53.8267 128 53.92C127.906 54.0133 127.86 54.1533 127.86 54.34L128 56.02V56.86C128 57.14 128 57.42 128 57.7C128 57.8867 127.953 58.2133 127.86 58.68C128.326 59.1467 128.373 59.4267 128 59.52C128 59.52 127.953 59.5667 127.86 59.66C127.86 59.66 127.813 59.66 127.72 59.66V60.08L128.14 60.5L127.86 61.34C127.953 61.2467 128 61.2 128 61.2C128.093 61.2 128.14 61.2 128.14 61.2L127.72 63.72C127.72 64.56 127.813 65.2133 128 65.68C128.186 66.0533 128.093 66.24 127.72 66.24H127.58C127.766 66.6133 127.86 66.8933 127.86 67.08C127.86 67.4533 127.813 67.78 127.72 68.06C127.626 68.2467 127.58 68.5267 127.58 68.9V69.04C127.766 69.32 127.906 69.7867 128 70.44C128.186 71.0933 128.28 71.7 128.28 72.26C128.28 72.82 128.233 73.1933 128.14 73.38L128.28 73.52C128.466 73.7067 128.653 73.8933 128.84 74.08C129.12 74.1733 129.166 74.3133 128.98 74.5C128.793 74.6867 128.793 74.78 128.98 74.78C129.166 74.9667 129.306 75.06 129.4 75.06C129.773 75.2467 130.053 75.34 130.24 75.34L130.52 75.48C130.613 75.5733 130.706 75.62 130.8 75.62C132.666 75.9 134.486 74.9667 136.26 72.82C136.446 72.54 136.68 72.4 136.96 72.4C137.146 72.4 137.286 72.54 137.38 72.82C137.566 73.1 137.52 73.4267 137.24 73.8C136.026 75.5733 134.86 76.7867 133.74 77.44C132.62 78.0933 131.546 78.42 130.52 78.42ZM147.082 78.28C144.749 78.28 142.696 77.6267 140.922 76.32C139.149 75.0133 138.262 72.7733 138.262 69.6C138.262 68.3867 138.402 67.1733 138.682 65.96C138.962 64.6533 139.289 63.3933 139.662 62.18C139.849 60.9667 140.129 59.8933 140.502 58.96C140.596 58.5867 140.642 58.4 140.642 58.4C140.736 58.3067 140.969 58.1667 141.342 57.98L142.462 56.3V55.74C142.369 55.74 142.322 55.74 142.322 55.74C142.322 55.6467 142.322 55.6 142.322 55.6C142.322 55.32 142.556 54.9933 143.022 54.62C143.489 54.2467 143.722 54.06 143.722 54.06C143.816 53.5933 143.956 53.36 144.142 53.36C144.329 53.36 144.562 53.22 144.842 52.94H146.382V52.66C146.382 52.1933 146.149 52.0067 145.682 52.1C145.309 52.1 145.122 52.0533 145.122 51.96C145.122 51.8667 145.262 51.68 145.542 51.4C145.916 51.0267 146.149 50.7933 146.242 50.7C146.522 50.3267 146.756 50 146.942 49.72C147.129 49.3467 147.409 49.0667 147.782 48.88C149.462 46.8267 150.489 45.52 150.862 44.96C151.329 44.4 151.796 43.98 152.262 43.7C152.449 43.7 152.589 43.7933 152.682 43.98C152.869 44.0733 152.869 44.2133 152.682 44.4C152.869 44.68 153.009 44.7267 153.102 44.54C153.289 44.3533 153.382 44.26 153.382 44.26L153.942 43.98C153.756 43.7933 153.662 43.56 153.662 43.28C153.662 42.8133 153.756 42.44 153.942 42.16C154.129 41.7867 154.456 41.4133 154.922 41.04C155.482 40.6667 155.762 40.4333 155.762 40.34C156.322 40.1533 156.742 39.9667 157.022 39.78C157.396 39.5933 157.769 39.5 158.142 39.5C158.796 39.5 159.449 39.7333 160.102 40.2C161.876 41.1333 163.369 42.0667 164.582 43C165.796 43.9333 166.402 45.24 166.402 46.92C166.402 48.6933 165.656 50.2333 164.162 51.54C162.762 52.7533 161.036 53.78 158.982 54.62C156.929 55.46 154.876 56.16 152.822 56.72C150.862 57.1867 149.322 57.56 148.202 57.84C147.549 57.9333 147.222 58.2133 147.222 58.68C147.316 59.0533 147.269 59.4733 147.082 59.94L146.102 61.48L145.262 63.44L144.562 64.7C143.909 65.26 143.676 65.68 143.862 65.96C144.049 66.24 144.376 66.1933 144.842 65.82C144.936 65.9133 144.982 66.0533 144.982 66.24C144.982 66.6133 144.889 67.08 144.702 67.64C144.516 68.1067 144.376 68.48 144.282 68.76C144.189 69.1333 144.189 69.32 144.282 69.32C144.469 69.2267 144.562 69.4133 144.562 69.88L144.702 71.84C145.262 73.6133 146.522 74.64 148.482 74.92C148.669 74.92 148.856 74.9667 149.042 75.06C149.322 75.06 149.556 75.06 149.742 75.06C151.422 75.06 152.309 74.92 152.402 74.64C152.589 74.36 152.822 74.1733 153.102 74.08C153.942 73.8933 154.642 73.7067 155.202 73.52C155.856 73.3333 156.509 73.0533 157.162 72.68C158.282 72.2133 159.356 71.6067 160.382 70.86C161.409 70.1133 162.482 69.3667 163.602 68.62L165.002 67.64C165.096 67.4533 165.096 67.3133 165.002 67.22C164.909 67.1267 164.909 67.0333 165.002 66.94C165.189 66.8467 165.329 66.8467 165.422 66.94C165.609 66.94 165.749 66.8933 165.842 66.8C166.029 66.7067 166.216 66.5667 166.402 66.38C166.589 66.1 166.776 65.8667 166.962 65.68C167.149 65.4933 167.242 65.3067 167.242 65.12C167.336 64.9333 167.476 64.7467 167.662 64.56C168.409 63.8133 169.156 63.02 169.902 62.18C170.742 61.34 171.442 60.5933 172.002 59.94C172.656 59.0067 173.169 58.54 173.542 58.54C173.729 58.54 173.822 58.6333 173.822 58.82C173.822 59.2867 173.496 59.9867 172.842 60.92C171.256 63.2533 169.436 65.54 167.382 67.78C165.329 69.9267 163.089 71.8867 160.662 73.66C158.889 74.8733 156.789 75.9467 154.362 76.88C151.936 77.8133 149.509 78.28 147.082 78.28ZM149.182 55.74C150.582 55.6467 152.402 55.2733 154.642 54.62C156.882 53.8733 158.749 52.8933 160.242 51.68C161.829 50.3733 162.622 48.9267 162.622 47.34C162.622 45.8467 161.829 44.4 160.242 43C158.936 43.9333 157.489 45.2867 155.902 47.06C154.409 48.74 153.056 50.42 151.842 52.1C150.629 53.6867 149.742 54.9 149.182 55.74ZM245.683 82.9C244.189 82.62 242.696 82.4333 241.203 82.34C239.803 82.2467 238.356 81.92 236.863 81.36C236.303 81.1733 235.603 80.66 234.763 79.82C234.016 78.98 233.503 78.3267 233.223 77.86C232.663 77.02 232.243 76.18 231.963 75.34C231.776 74.5 231.729 73.6133 231.823 72.68C231.916 72.4 231.963 72.0267 231.963 71.56C231.963 70.16 232.383 68.7133 233.223 67.22C234.063 65.7267 234.809 64.3267 235.463 63.02L235.883 62.6C236.816 60.7333 238.076 58.6333 239.663 56.3C241.249 53.9667 242.649 51.96 243.863 50.28C244.703 49.0667 245.589 47.9 246.523 46.78C247.549 45.66 248.436 44.4933 249.183 43.28L251.423 39.64L252.403 38.38L252.683 37.96C252.683 37.8667 252.683 37.82 252.683 37.82C252.776 37.7267 252.823 37.68 252.823 37.68C254.223 35.44 255.576 33.1533 256.883 30.82C258.283 28.4867 259.123 25.9667 259.403 23.26C259.496 22.98 259.589 22.7 259.683 22.42C259.776 22.14 259.869 21.86 259.963 21.58V21.02C259.963 20.46 259.916 19.8533 259.823 19.2C259.729 18.5467 259.729 18.08 259.823 17.8L259.403 15.98C258.749 15.5133 258.423 15.14 258.423 14.86C258.516 14.4867 258.003 14.02 256.883 13.46L256.323 12.9C256.229 13.18 255.996 13.32 255.623 13.32C254.876 13.32 254.409 12.9933 254.223 12.34L253.243 12.48C253.149 12.2 252.589 11.9667 251.563 11.78C250.629 11.5933 250.069 11.5467 249.883 11.64L249.463 11.22C249.183 11.22 248.809 11.22 248.343 11.22C247.969 11.1267 247.643 11.1267 247.363 11.22C247.083 11.4067 246.849 11.4533 246.663 11.36C246.476 11.2667 246.196 11.22 245.823 11.22C245.543 11.22 245.263 11.2667 244.983 11.36C244.703 11.4533 244.376 11.5467 244.003 11.64L243.163 12.06C242.323 12.2467 241.296 12.3867 240.083 12.48C238.963 12.48 238.029 12.7133 237.283 13.18L237.143 12.9L233.783 13.88L232.803 14.02C232.149 14.58 231.823 14.9533 231.823 15.14C231.823 15.5133 232.149 15.7467 232.803 15.84C233.456 15.84 233.503 16.0267 232.943 16.4C232.196 16.7733 231.403 17.0533 230.563 17.24C229.723 17.4267 228.929 17.7533 228.183 18.22C227.809 18.5 227.436 18.78 227.063 19.06C226.783 19.2467 226.363 19.2933 225.803 19.2L225.383 19.48L223.563 20.88C222.723 20.7867 221.743 21.0667 220.623 21.72C219.503 22.3733 218.569 22.9333 217.823 23.4L217.683 23.12C217.496 23.2133 217.263 23.4 216.983 23.68C216.796 23.96 216.609 24.1933 216.423 24.38L211.663 27.18L211.243 27.04L210.683 28.16L210.403 28.02C209.469 28.7667 208.629 29.42 207.883 29.98C207.229 30.54 206.576 31.38 205.923 32.5L206.063 34.18C206.436 34.3667 206.763 34.5067 207.043 34.6C207.416 34.6933 207.789 34.7867 208.163 34.88L208.443 34.6C210.589 34.7867 212.596 34.6467 214.463 34.18L214.603 34.32L215.583 33.76L215.723 34.04L219.363 32.92L219.503 33.06C219.969 32.6867 220.343 32.5 220.623 32.5C220.996 32.5 220.669 32.92 219.643 33.76C218.616 34.6 217.496 34.9267 216.283 34.74L215.863 35.44H214.743C214.836 35.16 214.696 35.16 214.323 35.44C214.043 35.72 213.903 35.86 213.903 35.86C212.689 36.2333 211.663 36.5133 210.823 36.7C209.983 36.8867 209.096 36.98 208.163 36.98C207.789 36.98 207.323 36.9333 206.763 36.84C206.296 36.7467 205.783 36.7 205.223 36.7H205.083C204.896 36.7 204.663 36.7467 204.383 36.84C204.196 36.9333 203.963 36.9333 203.683 36.84C202.096 36 201.303 34.88 201.303 33.48C201.303 31.8933 201.909 30.26 203.123 28.58C204.336 26.9 205.643 25.5 207.043 24.38C208.443 23.26 209.423 22.7467 209.983 22.84L210.123 22.28L211.383 21.72L211.943 21.02L212.083 21.3L214.743 19.06L214.883 19.2L217.683 17.66L217.823 17.94C218.009 17.7533 218.196 17.5667 218.383 17.38C218.663 17.1933 218.756 17.3333 218.663 17.8L219.643 16.82L219.783 16.96C220.809 15.9333 221.556 15.42 222.023 15.42C222.583 15.42 223.469 15.1867 224.683 14.72C225.616 14.3467 226.549 13.9267 227.483 13.46C228.509 12.9 229.489 12.5733 230.423 12.48C230.983 12.2933 231.449 12.1533 231.823 12.06C232.196 11.9667 232.616 11.8267 233.083 11.64L233.223 11.92C233.503 11.7333 234.016 11.5 234.763 11.22C235.603 10.94 236.396 10.7067 237.143 10.52C237.983 10.24 238.496 10.1933 238.683 10.38C238.869 10.66 239.056 10.8 239.243 10.8C239.616 10.8 239.943 10.66 240.223 10.38C240.596 10.1 240.923 9.91333 241.203 9.82C241.669 9.72666 242.089 9.68 242.463 9.68C242.929 9.58666 243.349 9.58666 243.723 9.68C243.816 9.68 244.003 9.63333 244.283 9.54C244.469 9.44666 244.796 9.4 245.263 9.4C245.916 9.4 246.663 9.49333 247.503 9.68C248.343 9.86666 248.949 9.96 249.323 9.96H249.603C249.883 9.96 250.209 9.91333 250.583 9.82C251.049 9.63333 251.329 9.58666 251.423 9.68C251.983 9.96 252.589 10.1933 253.243 10.38C253.896 10.4733 254.503 10.66 255.063 10.94C255.529 11.3133 256.043 11.4533 256.603 11.36C257.256 11.2667 257.629 11.2667 257.723 11.36C259.309 12.48 260.663 13.32 261.783 13.88C262.996 14.44 263.976 15.7467 264.723 17.8C265.283 19.2 265.563 20.6 265.563 22C265.563 22.6533 265.469 23.3067 265.283 23.96C265.189 24.6133 265.049 25.3133 264.863 26.06C264.583 26.8067 264.303 27.5533 264.023 28.3C263.836 28.9533 263.649 29.6533 263.463 30.4C263.369 30.7733 262.903 31.7067 262.063 33.2C261.316 34.6933 260.523 36.1867 259.683 37.68C258.843 39.08 258.236 39.9667 257.863 40.34C257.209 41.0867 256.509 41.9267 255.763 42.86C255.109 43.7933 254.503 44.7267 253.943 45.66C253.103 46.8733 252.263 48.04 251.423 49.16C250.583 50.1867 249.696 51.3067 248.763 52.52C247.736 53.8267 246.756 55.2267 245.823 56.72C244.889 58.2133 243.956 59.7067 243.023 61.2C242.836 61.5733 242.649 61.9933 242.463 62.46C242.369 62.8333 242.136 63.2067 241.763 63.58H241.623C241.436 63.58 241.203 63.7667 240.923 64.14C240.736 64.42 240.596 64.6533 240.503 64.84C240.596 65.2133 240.409 65.9133 239.943 66.94C239.569 67.9667 239.149 69.04 238.683 70.16C238.216 71.1867 237.889 71.8867 237.703 72.26C237.423 72.82 237.283 73.1933 237.283 73.38C237.376 73.5667 237.376 73.8933 237.283 74.36C237.189 76.32 237.889 77.72 239.383 78.56C240.969 79.4933 242.556 80.1933 244.143 80.66C244.516 80.7533 244.843 80.8 245.123 80.8C245.496 80.8933 245.869 80.94 246.243 80.94C247.736 80.94 249.229 80.7067 250.723 80.24C252.216 79.7733 253.476 79.3067 254.503 78.84C255.623 78.4667 256.276 78.3267 256.463 78.42L256.883 77.86C257.349 77.86 257.723 77.7667 258.003 77.58C258.376 77.3933 258.749 77.2533 259.123 77.16C259.309 76.9733 259.543 76.88 259.823 76.88C260.009 76.88 260.103 76.88 260.103 76.88L261.083 76.32L260.943 76.18C260.943 75.9933 261.176 75.8533 261.643 75.76C262.109 75.5733 262.389 75.48 262.483 75.48V75.2L263.883 74.36C263.976 74.2667 264.069 74.2667 264.163 74.36C264.256 74.36 264.349 74.3133 264.443 74.22C264.909 74.0333 265.283 73.7067 265.563 73.24C265.843 72.7733 266.216 72.4933 266.683 72.4C267.709 71.9333 268.923 71.0933 270.323 69.88C271.816 68.5733 273.216 67.22 274.523 65.82C275.923 64.42 276.996 63.3 277.743 62.46C278.023 62.18 278.256 61.8533 278.443 61.48C278.723 61.1067 279.003 60.8267 279.283 60.64L287.823 51.82C288.103 51.54 288.383 51.26 288.663 50.98C288.943 50.6067 289.129 50.2333 289.223 49.86C289.223 49.86 289.549 49.5333 290.203 48.88C290.856 48.1333 291.556 47.3867 292.303 46.64C293.049 45.8 293.516 45.24 293.703 44.96C293.889 44.5867 294.169 44.0267 294.543 43.28C294.916 42.44 295.103 41.8333 295.103 41.46C295.103 41.2733 294.963 41.0867 294.683 40.9C294.403 40.62 294.263 40.2933 294.263 39.92C294.263 39.2667 294.169 38.66 293.983 38.1C293.796 37.4467 293.703 36.8867 293.703 36.42C293.796 35.6733 294.029 34.8333 294.403 33.9C294.776 32.9667 295.289 32.3133 295.943 31.94C296.316 31.7533 296.596 31.66 296.783 31.66L297.203 31.8C297.389 31.6133 297.436 31.4267 297.343 31.24C297.343 31.0533 297.389 30.8667 297.483 30.68V30.4L297.343 29.84C297.249 29.4667 297.203 28.7667 297.203 27.74C297.203 26.62 297.203 25.5933 297.203 24.66C297.203 23.6333 297.156 23.0733 297.063 22.98V22.28C297.249 22.3733 297.436 22.3267 297.623 22.14C297.903 21.9533 298.089 21.86 298.183 21.86C298.463 21.86 298.603 22.0467 298.603 22.42C298.789 22.7933 298.836 23.1667 298.743 23.54C298.649 23.9133 298.603 24.2867 298.603 24.66C298.603 25.0333 298.743 25.4067 299.023 25.78C299.303 26.06 299.489 26.3867 299.583 26.76C299.676 26.9467 299.676 27.2267 299.583 27.6C299.583 27.88 299.629 28.1133 299.723 28.3C299.816 28.4867 299.956 28.6733 300.143 28.86C300.329 29.0467 300.469 29.2333 300.563 29.42V29.56C300.563 29.7467 300.469 30.0733 300.283 30.54C300.096 31.0067 300.049 31.4267 300.143 31.8C300.423 34.4133 301.123 37.0733 302.243 39.78C302.429 40.06 302.616 40.2933 302.803 40.48C303.083 40.6667 303.269 40.9 303.363 41.18V41.6C303.269 41.7867 303.176 41.9267 303.083 42.02C303.083 42.1133 303.083 42.2533 303.083 42.44C303.083 43.3733 303.223 44.1667 303.503 44.82C303.876 45.38 304.249 45.9867 304.623 46.64V46.92C304.623 47.9467 304.763 48.88 305.043 49.72C305.416 50.56 305.883 51.4 306.443 52.24C306.536 52.3333 306.536 52.5667 306.443 52.94C306.443 53.22 306.489 53.4533 306.583 53.64C306.769 54.0133 307.003 54.34 307.283 54.62C307.563 54.9 307.749 55.18 307.843 55.46C308.123 55.9267 308.263 56.44 308.263 57C308.356 57.56 308.496 58.0733 308.683 58.54C308.869 58.9133 309.149 59.24 309.523 59.52C309.896 59.7067 310.176 59.9867 310.363 60.36C310.923 61.2933 311.483 62.4133 312.043 63.72C312.696 64.9333 313.349 65.9133 314.003 66.66V66.8C314.003 67.1733 314.189 67.5467 314.563 67.92C314.936 68.2 315.263 68.5267 315.543 68.9C315.636 69.0867 315.683 69.3667 315.683 69.74C315.776 70.1133 315.916 70.3 316.103 70.3C316.289 70.3 316.336 70.3 316.243 70.3C316.243 70.2067 316.336 70.16 316.523 70.16L318.063 71.42C318.249 71.5133 318.343 71.6533 318.343 71.84C318.343 71.9333 318.389 72.0267 318.483 72.12C318.669 72.2133 318.903 72.26 319.183 72.26C319.463 72.26 319.649 72.4467 319.743 72.82C319.836 73.0067 320.116 73.38 320.583 73.94C321.049 74.5 321.329 74.8267 321.423 74.92C321.516 75.0133 321.609 75.06 321.703 75.06C321.796 74.9667 321.889 74.9667 321.983 75.06C322.636 75.34 323.196 75.8067 323.663 76.46C324.129 77.1133 324.689 77.44 325.343 77.44H325.483C325.856 77.44 326.183 77.3467 326.463 77.16C326.743 76.9733 327.023 76.88 327.303 76.88C327.489 76.9733 327.536 77.0667 327.443 77.16C327.443 77.16 327.536 77.16 327.723 77.16C327.909 77.16 327.956 77.1133 327.863 77.02C327.769 76.8333 327.816 76.7867 328.003 76.88C328.189 76.88 328.329 76.9733 328.423 77.16C328.609 77.2533 328.796 77.3467 328.983 77.44C329.449 77.44 329.776 77.3 329.963 77.02C330.243 76.6467 330.476 76.32 330.663 76.04C330.849 75.8533 331.036 75.8067 331.223 75.9C331.503 75.9 331.736 75.8533 331.923 75.76C332.203 75.48 332.436 75.2 332.623 74.92C332.903 74.64 333.229 74.4533 333.603 74.36C333.883 74.1733 334.116 73.94 334.303 73.66C334.583 73.1933 334.769 72.68 334.863 72.12C334.956 71.56 335.049 71.0933 335.143 70.72C335.609 70.72 335.889 70.58 335.983 70.3C336.449 69.2733 336.823 68.1533 337.103 66.94L337.243 66.38C337.243 66.1933 337.196 66.0533 337.103 65.96C337.103 65.8667 337.103 65.7733 337.103 65.68V65.26C337.103 64.7933 337.149 64.3267 337.243 63.86C337.336 63.3 337.429 62.8333 337.523 62.46C337.709 62.6467 337.803 62.5533 337.803 62.18L338.363 56.02C338.363 55.8333 338.316 55.74 338.223 55.74C338.129 55.6467 338.083 55.5533 338.083 55.46C337.989 54.1533 337.803 53.1267 337.523 52.38C337.243 51.54 337.009 50.5133 336.823 49.3C336.729 49.02 336.729 48.74 336.823 48.46C336.916 48.18 336.916 47.9467 336.823 47.76C336.729 46.8267 336.543 46.2667 336.263 46.08C336.076 45.8933 335.889 45.66 335.703 45.38C335.609 45.1 335.563 44.4933 335.563 43.56C335.563 43.3733 335.469 43.14 335.283 42.86C335.096 42.58 334.956 42.3933 334.863 42.3L334.443 42.72C334.069 41.9733 333.789 41.2267 333.603 40.48C333.416 39.7333 333.089 39.0333 332.623 38.38C332.529 38.2867 332.483 38.0067 332.483 37.54C332.576 37.0733 332.623 36.7933 332.623 36.7C332.436 36.5133 332.203 36.42 331.923 36.42C331.736 36.3267 331.549 36.1867 331.363 36C331.269 35.5333 331.083 35.2533 330.803 35.16C330.616 35.0667 330.383 34.8333 330.103 34.46C330.009 34.3667 329.963 34.2267 329.963 34.04C330.056 33.76 330.009 33.48 329.823 33.2C329.729 33.1067 329.543 33.06 329.263 33.06C329.076 33.06 328.936 32.9667 328.843 32.78C328.749 32.5 328.469 32.1267 328.003 31.66C327.629 31.1933 327.209 30.96 326.743 30.96C326.556 31.0533 326.416 31.1933 326.323 31.38C326.229 31.5667 326.136 31.66 326.043 31.66C325.669 31.5667 325.343 31.4267 325.063 31.24C324.876 30.96 324.596 30.82 324.223 30.82C324.036 30.82 323.849 30.8667 323.663 30.96C323.569 31.0533 323.429 31.1 323.243 31.1C323.149 31.1 323.103 30.96 323.103 30.68C323.196 30.4 323.149 30.26 322.963 30.26H322.823C322.636 30.26 322.403 30.3067 322.123 30.4C321.843 30.4933 321.609 30.4933 321.423 30.4C321.609 30.2133 321.516 30.12 321.143 30.12C320.956 30.0267 320.909 30.0267 321.003 30.12C321.096 30.2133 321.049 30.26 320.863 30.26C320.676 30.1667 320.443 29.9333 320.163 29.56C319.976 29.1867 319.743 29 319.463 29C319.276 28.9067 319.229 28.9067 319.323 29C319.416 29.0933 319.369 29.14 319.183 29.14C318.903 29.0467 318.623 28.86 318.343 28.58C318.063 28.3 317.829 28.16 317.643 28.16C317.456 28.16 317.363 28.2067 317.363 28.3C317.456 28.3 317.409 28.3467 317.223 28.44L316.943 28.16C316.569 27.7867 316.009 27.2267 315.263 26.48C314.516 25.7333 314.143 25.08 314.143 24.52C314.236 23.96 314.469 23.3533 314.843 22.7C315.216 22.0467 315.729 21.7667 316.383 21.86C316.569 21.9533 316.756 22.0933 316.943 22.28C317.129 22.3733 317.316 22.4667 317.503 22.56H317.923C318.109 22.7467 318.296 23.0267 318.483 23.4C318.763 23.7733 318.996 24.0067 319.183 24.1C319.183 24.1933 319.229 24.1467 319.323 23.96C319.509 23.7733 319.649 23.68 319.743 23.68C319.929 23.68 320.023 23.7267 320.023 23.82C320.023 23.82 320.069 23.8667 320.163 23.96C320.443 23.96 320.723 23.82 321.003 23.54C321.283 23.1667 321.516 22.9333 321.703 22.84C321.889 22.84 321.936 22.9333 321.843 23.12C321.843 23.2133 321.889 23.3067 321.983 23.4L323.243 23.12L323.523 23.54C323.803 23.6333 324.083 23.82 324.363 24.1C324.643 24.2867 324.876 24.38 325.063 24.38C325.249 24.4733 325.343 24.52 325.343 24.52C325.436 24.4267 325.529 24.38 325.623 24.38C325.809 24.38 326.276 24.5667 327.023 24.94C327.769 25.3133 328.189 25.5467 328.283 25.64C328.469 25.7333 328.563 25.8267 328.563 25.92C328.563 26.0133 328.609 26.1067 328.703 26.2L328.983 25.92L329.263 26.34L329.683 26.06L330.943 28.44C331.129 28.44 331.316 28.44 331.503 28.44C331.783 28.3467 331.969 28.3467 332.063 28.44C332.156 28.44 332.203 28.5333 332.203 28.72C332.296 28.9067 332.389 29.0467 332.483 29.14C332.669 29.2333 333.136 29.42 333.883 29.7C334.629 29.98 335.049 30.12 335.143 30.12C335.329 30.12 335.376 30.0733 335.283 29.98C335.283 29.8867 335.376 29.84 335.563 29.84C335.749 29.84 335.889 29.9333 335.983 30.12C336.076 30.3067 336.216 30.4 336.403 30.4C336.589 30.4 336.636 30.4 336.543 30.4C336.449 30.3067 336.496 30.26 336.683 30.26C336.869 30.26 336.963 30.3067 336.963 30.4C336.963 30.4933 337.009 30.6333 337.103 30.82C337.103 30.6333 337.289 30.4933 337.663 30.4C338.129 30.3067 338.409 30.3067 338.503 30.4C338.689 30.4933 339.063 30.7733 339.623 31.24C340.276 31.6133 340.509 31.8933 340.323 32.08C340.229 32.1733 339.903 32.36 339.343 32.64C338.783 32.8267 338.409 32.92 338.223 32.92C337.943 32.92 337.663 32.8733 337.383 32.78C337.103 32.6867 336.823 32.64 336.543 32.64C336.356 32.64 336.263 32.6867 336.263 32.78C336.356 32.8733 336.309 32.92 336.123 32.92C335.936 32.92 335.749 32.8733 335.563 32.78C335.376 32.5933 335.143 32.5 334.863 32.5C334.396 32.5 334.069 32.8267 333.883 33.48C333.883 33.5733 334.069 34.04 334.443 34.88C334.909 35.72 335.376 36.6067 335.843 37.54C336.309 38.38 336.589 38.94 336.683 39.22C336.869 39.8733 337.056 40.5267 337.243 41.18C337.523 41.8333 337.709 42.5333 337.803 43.28C337.803 43.4667 337.803 43.7467 337.803 44.12C337.803 44.4933 337.849 44.7267 337.943 44.82C338.036 44.9133 338.129 44.96 338.223 44.96C338.316 44.8667 338.409 44.9133 338.503 45.1C338.503 45.1933 338.503 45.2867 338.503 45.38C338.596 45.4733 338.643 45.5667 338.643 45.66V46.36C338.643 46.4533 338.643 46.64 338.643 46.92C338.736 47.2 338.923 47.5733 339.203 48.04V48.6C339.203 49.5333 339.296 50.5133 339.483 51.54C339.669 52.4733 339.809 53.4533 339.903 54.48C339.996 55.4133 339.996 56.3467 339.903 57.28C339.903 58.12 339.903 59.0067 339.903 59.94C339.903 60.22 339.949 60.5467 340.043 60.92C340.136 61.2 340.183 61.4333 340.183 61.62C340.183 61.9 340.136 62.1333 340.043 62.32C339.949 62.5067 339.903 62.6933 339.903 62.88C339.809 63.2533 339.763 63.6733 339.763 64.14C339.763 64.5133 339.763 64.8867 339.763 65.26C339.669 65.7267 339.483 66.5667 339.203 67.78C338.923 68.9 338.689 69.6933 338.503 70.16C338.409 70.2533 338.269 70.3 338.083 70.3C337.989 70.3 337.943 70.3933 337.943 70.58C337.663 71.2333 337.429 71.9333 337.243 72.68C337.056 73.3333 336.729 73.9867 336.263 74.64C335.703 75.5733 335.003 76.32 334.163 76.88C333.416 77.3467 332.716 77.9533 332.063 78.7C331.316 78.7 330.663 78.98 330.103 79.54C329.543 80.1933 328.889 80.52 328.143 80.52C327.769 80.52 327.536 80.4733 327.443 80.38C327.349 80.2867 327.116 80.38 326.743 80.66L326.463 80.24C325.996 80.7067 325.623 80.94 325.343 80.94C325.063 80.94 324.783 80.8933 324.503 80.8C324.316 80.7067 324.036 80.6133 323.663 80.52L323.103 79.96L322.543 80.24C321.889 79.7733 321.189 79.26 320.443 78.7C319.696 78.2333 318.949 77.8133 318.203 77.44L317.083 77.16C316.896 76.9733 316.663 76.6933 316.383 76.32C316.103 75.9467 315.869 75.76 315.683 75.76C315.589 75.6667 315.496 75.6667 315.403 75.76C315.403 75.8533 315.309 75.8533 315.123 75.76C315.029 75.76 314.796 75.6667 314.423 75.48C314.049 75.2 313.769 75.0133 313.583 74.92C313.583 74.7333 313.536 74.5933 313.443 74.5C313.349 74.3133 313.116 74.1267 312.743 73.94C312.463 73.66 312.229 73.4733 312.043 73.38C311.669 73.0067 311.296 72.5867 310.923 72.12C310.549 71.56 310.129 71.14 309.663 70.86C309.663 70.4867 309.616 70.2533 309.523 70.16C308.309 68.76 307.423 67.8267 306.863 67.36C306.396 66.8 305.649 65.6333 304.623 63.86C304.436 63.4867 304.203 63.1133 303.923 62.74C303.736 62.3667 303.503 62.04 303.223 61.76C302.943 61.3867 302.709 61.0133 302.523 60.64C302.149 59.8933 301.869 59.1467 301.683 58.4C301.496 57.56 301.216 56.7667 300.843 56.02C300.563 55.46 300.236 54.9467 299.863 54.48C299.489 53.92 299.209 53.36 299.023 52.8C298.929 52.4267 298.836 52.1 298.743 51.82C298.649 51.54 298.509 51.2133 298.323 50.84L297.203 49.02C297.016 48.5533 296.829 48.04 296.643 47.48C296.456 46.8267 296.269 46.22 296.083 45.66L292.583 49.3C291.743 50.14 290.809 51.0267 289.783 51.96C288.756 52.8 287.963 53.7333 287.403 54.76C287.029 55.32 286.609 55.88 286.143 56.44C285.676 57 285.209 57.5133 284.743 57.98C282.969 60.0333 280.683 62.4133 277.883 65.12C275.176 67.8267 272.329 70.3933 269.343 72.82C266.449 75.1533 263.789 77.02 261.363 78.42C260.989 78.6067 260.569 78.7467 260.103 78.84C259.729 79.0267 259.309 79.26 258.843 79.54C258.656 79.7267 258.469 79.7733 258.283 79.68L257.023 80.24C257.023 80.0533 256.743 80.1 256.183 80.38C255.716 80.66 255.389 80.8467 255.203 80.94L254.363 81.22L254.223 81.08L252.683 81.78L252.543 81.64C252.356 81.64 252.123 81.5933 251.843 81.5C251.656 81.5 251.469 81.5933 251.283 81.78V81.92C250.816 82.2933 250.256 82.48 249.603 82.48C248.949 82.48 248.389 82.5733 247.923 82.76L249.183 81.36L245.683 82.9ZM366.564 34.32C366.284 34.32 366.004 34.2267 365.724 34.04C365.537 33.8533 365.257 33.62 364.884 33.34C364.697 33.2467 364.464 33.1533 364.184 33.06C363.997 32.8733 363.904 32.5933 363.904 32.22C363.811 32.1267 363.624 32.08 363.344 32.08C362.877 32.08 362.644 31.7533 362.644 31.1C362.644 30.3533 363.017 29.84 363.764 29.56L364.464 29V29.14L365.024 28.44H365.304C365.864 28.44 366.237 28.16 366.424 27.6C366.704 27.04 367.264 26.6667 368.104 26.48C368.664 26.2933 369.131 26.34 369.504 26.62C369.877 26.9 370.344 27.04 370.904 27.04C371.464 27.04 372.071 26.8533 372.724 26.48L374.824 26.06C375.104 26.06 375.244 26.1533 375.244 26.34C375.244 26.5267 374.964 26.76 374.404 27.04C373.937 27.32 373.611 27.5533 373.424 27.74L373.284 27.88L373.144 28.16L372.584 28.86C372.024 29.5133 371.371 30.3067 370.624 31.24C369.971 32.08 369.271 32.78 368.524 33.34C367.684 33.9933 367.031 34.32 366.564 34.32ZM345.284 78.42C344.724 78.42 344.444 78.0933 344.444 77.44C344.444 76.9733 344.584 76.4133 344.864 75.76C345.611 74.1733 346.451 71.9333 347.384 69.04C348.411 66.1467 349.671 63.6733 351.164 61.62C352.191 59.5667 353.124 57.56 353.964 55.6C354.897 53.5467 355.784 51.4933 356.624 49.44C356.624 49.44 356.531 49.3933 356.344 49.3C356.251 49.1133 356.204 48.9267 356.204 48.74C355.644 48.3667 355.037 47.8533 354.384 47.2C353.824 46.4533 353.777 45.7067 354.244 44.96C354.431 44.7733 354.571 44.68 354.664 44.68C354.757 44.68 354.804 44.68 354.804 44.68C354.804 44.5867 354.757 44.54 354.664 44.54C354.664 44.4467 354.664 44.4 354.664 44.4C354.664 44.0267 354.851 43.7933 355.224 43.7C355.597 43.6067 355.784 43.4667 355.784 43.28C355.971 41.9733 357.091 40.9933 359.144 40.34C361.197 39.6867 363.017 39.36 364.604 39.36C366.191 39.36 366.984 39.5933 366.984 40.06C366.984 40.2467 366.704 40.5733 366.144 41.04C365.864 41.2267 365.397 41.6467 364.744 42.3C364.091 42.9533 363.484 43.7467 362.924 44.68L361.804 46.36C361.711 46.5467 361.571 46.78 361.384 47.06C361.291 47.2467 361.151 47.4333 360.964 47.62C359.471 50.3267 358.257 52.6133 357.324 54.48C356.391 56.3467 355.271 58.7267 353.964 61.62C353.777 62.18 353.684 62.5533 353.684 62.74C353.684 63.3933 354.057 63.72 354.804 63.72C355.364 63.72 355.924 63.58 356.484 63.3L357.884 62.74C360.124 60.6867 362.457 58.96 364.884 57.56C364.977 57.56 365.024 57.56 365.024 57.56C365.117 57.4667 365.211 57.42 365.304 57.42C365.584 57.42 365.771 57.6067 365.864 57.98C365.957 58.26 365.864 58.4933 365.584 58.68C362.877 60.1733 360.357 62.0867 358.024 64.42C357.931 64.6067 357.837 64.7933 357.744 64.98C357.651 65.1667 357.511 65.3533 357.324 65.54C357.137 65.7267 356.857 66.0533 356.484 66.52C356.204 66.9867 356.064 67.2667 356.064 67.36C355.971 67.64 355.831 67.7333 355.644 67.64C355.551 67.5467 355.271 67.6867 354.804 68.06C354.711 68.1533 354.617 68.34 354.524 68.62C354.524 68.9 354.477 69.1333 354.384 69.32C354.291 69.6 354.104 69.8333 353.824 70.02C353.637 70.1133 353.544 70.2067 353.544 70.3C353.451 70.6733 353.264 70.9067 352.984 71C352.797 71 352.611 71.0933 352.424 71.28C352.331 71.3733 352.331 71.5133 352.424 71.7C352.517 71.8867 352.471 72.0733 352.284 72.26C352.191 72.54 352.097 72.68 352.004 72.68C351.911 72.5867 351.771 72.6333 351.584 72.82C351.211 73.1933 350.931 73.38 350.744 73.38C350.184 73.5667 349.951 73.7067 350.044 73.8C350.231 73.8933 350.371 73.9867 350.464 74.08C350.651 74.08 350.511 74.22 350.044 74.5C349.857 74.5933 349.671 74.8733 349.484 75.34C349.297 75.7133 349.111 75.9933 348.924 76.18C348.644 76.3667 348.364 76.5067 348.084 76.6C347.897 76.6933 347.664 76.88 347.384 77.16C346.544 78 345.844 78.42 345.284 78.42ZM380.563 78.56C380.47 78.56 380.33 78.4667 380.143 78.28C379.956 78.1867 379.816 78.14 379.723 78.14C379.35 78.2333 379.023 78.28 378.743 78.28C378.463 78.28 378.183 78.28 377.903 78.28C377.81 78.28 377.716 78.2333 377.623 78.14C377.623 78.0467 377.576 78 377.483 78C377.39 78 377.343 78 377.343 78C377.436 78.0933 377.436 78.14 377.343 78.14C377.343 78.14 377.25 78.0933 377.063 78C376.876 77.9067 376.736 77.86 376.643 77.86L376.503 77.72C376.316 77.72 376.176 77.6733 376.083 77.58C376.083 77.4867 376.036 77.44 375.943 77.44L375.803 77.58L375.663 77.44C375.476 77.3467 375.196 77.2533 374.823 77.16C374.543 76.9733 374.31 76.8333 374.123 76.74C373.936 76.74 373.703 76.6 373.423 76.32H373.143C372.956 76.04 372.63 75.8533 372.163 75.76C372.163 75.6667 372.116 75.5733 372.023 75.48H371.883C371.696 75.2 371.556 75.1067 371.463 75.2C371.37 75.0133 371.23 74.8733 371.043 74.78C370.95 74.5933 370.81 74.4533 370.623 74.36C370.623 73.9867 370.53 73.8 370.343 73.8C370.343 73.6133 370.156 73.3333 369.783 72.96C369.503 72.5867 369.316 72.26 369.223 71.98L369.083 71.84C368.71 71.4667 368.43 70.86 368.243 70.02C368.15 69.6467 368.056 69.5067 367.963 69.6C367.963 69.6933 367.916 69.46 367.823 68.9C367.823 68.8067 367.823 68.6667 367.823 68.48C367.916 68.2 367.916 68.0133 367.823 67.92C367.823 67.8267 367.776 67.78 367.683 67.78C367.683 67.6867 367.683 67.5933 367.683 67.5C367.59 67.4067 367.543 67.36 367.543 67.36C367.636 67.2667 367.683 67.22 367.683 67.22C367.683 67.0333 367.636 66.94 367.543 66.94C367.543 66.8467 367.543 66.7533 367.543 66.66V66.38C367.543 65.9133 367.636 65.5867 367.823 65.4C367.823 65.2133 367.87 65.0733 367.963 64.98C368.056 64.8867 368.103 64.7933 368.103 64.7C368.103 64.5133 368.196 64.42 368.383 64.42C368.57 64.42 368.663 64.3733 368.663 64.28C368.663 64.0933 368.71 64 368.803 64C368.99 63.9067 369.13 63.8133 369.223 63.72C369.223 63.6267 369.27 63.5333 369.363 63.44C369.55 63.3467 369.643 63.2533 369.643 63.16C370.11 62.88 370.623 62.74 371.183 62.74C372.303 62.74 372.863 63.02 372.863 63.58C372.863 63.7667 372.583 64.0933 372.023 64.56C371.93 64.84 371.883 65.0267 371.883 65.12C371.976 65.12 371.93 65.2133 371.743 65.4C371.836 65.68 371.883 66.0533 371.883 66.52C371.79 66.52 371.743 66.66 371.743 66.94C371.836 67.1267 371.883 67.22 371.883 67.22C371.883 67.3133 371.93 67.5933 372.023 68.06C372.21 68.5267 372.35 68.8067 372.443 68.9C372.443 68.9 372.536 69.1333 372.723 69.6C372.91 69.9733 373.003 70.2067 373.003 70.3V70.58C373.19 70.86 373.283 71.0467 373.283 71.14C373.376 71.14 373.75 71.3267 374.403 71.7C374.496 71.7933 374.683 71.84 374.963 71.84C375.43 72.12 375.756 72.3533 375.943 72.54C376.223 72.7267 376.876 72.9133 377.903 73.1C378.276 73.1933 378.416 73.2867 378.323 73.38C378.323 73.38 378.51 73.38 378.883 73.38C378.883 73.38 378.883 73.4267 378.883 73.52C378.883 73.52 378.93 73.52 379.023 73.52C379.21 73.4267 379.396 73.4267 379.583 73.52C379.77 73.52 379.956 73.4733 380.143 73.38H380.703C381.356 73.38 382.056 73.2867 382.803 73.1L384.903 72.54C385.556 72.4467 386.163 72.26 386.723 71.98C387.283 71.7 387.796 71.42 388.263 71.14C388.356 71.14 388.636 71 389.103 70.72C389.57 70.3467 390.13 69.9733 390.783 69.6C390.69 69.32 390.643 68.9467 390.643 68.48C390.643 68.2 390.783 68.06 391.063 68.06C391.343 67.9667 391.53 67.8267 391.623 67.64C391.343 67.4533 390.97 67.36 390.503 67.36C390.13 67.36 389.99 67.22 390.083 66.94C389.71 64.8867 389.15 63.02 388.403 61.34C387.75 59.66 386.956 57.7933 386.023 55.74C385.93 55.46 385.743 54.9933 385.463 54.34C385.183 53.6867 384.996 53.1733 384.903 52.8C384.903 52.7067 384.996 52.7067 385.183 52.8C385.37 52.8 385.416 52.7533 385.323 52.66C385.23 52.1933 385.136 51.7267 385.043 51.26C385.043 50.7933 384.996 50.3733 384.903 50C384.81 49.8133 384.903 49.6733 385.183 49.58C385.463 49.4867 385.556 49.3467 385.463 49.16C385.37 48.9733 385.183 48.9267 384.903 49.02C384.623 49.1133 384.436 49.0667 384.343 48.88L383.923 47.2C383.923 46.7333 383.83 46.4533 383.643 46.36C383.55 46.2667 383.643 46.08 383.923 45.8C384.11 45.7067 384.203 45.5667 384.203 45.38C384.203 45.1 384.25 44.9133 384.343 44.82C384.81 44.54 384.996 44.2133 384.903 43.84C384.81 43.3733 384.903 42.9533 385.183 42.58C385.463 42.2067 385.696 41.88 385.883 41.6C386.07 41.2267 386.35 40.9933 386.723 40.9C387.003 40.7133 387.096 40.76 387.003 41.04C386.91 41.32 386.91 41.46 387.003 41.46C387.47 41.46 387.656 41.2267 387.563 40.76C387.47 40.2933 387.61 39.8733 387.983 39.5C388.636 38.94 389.616 38.4733 390.923 38.1C392.23 37.7267 393.21 37.4933 393.863 37.4C394.05 37.4 394.19 37.4 394.283 37.4C394.47 37.3067 394.61 37.26 394.703 37.26C395.17 37.26 395.636 37.3067 396.103 37.4C396.663 37.4933 397.176 37.5867 397.643 37.68C398.016 37.7733 398.576 38.1467 399.323 38.8C400.07 39.36 400.63 39.5 401.003 39.22C401.843 38.4733 402.73 37.82 403.663 37.26C404.69 36.7 405.343 36.4667 405.623 36.56C406.37 36.6533 407.023 36.8867 407.583 37.26C408.143 37.54 408.33 38.4733 408.143 40.06C408.05 40.62 407.816 41.0867 407.443 41.46C407.163 41.74 406.883 42.1133 406.603 42.58L405.623 43.98C405.25 44.6333 404.783 45.2867 404.223 45.94C403.756 46.5933 403.336 47.0133 402.963 47.2C402.59 47.3867 402.216 47.7133 401.843 48.18C401.563 48.5533 401.19 48.9267 400.723 49.3C400.256 49.6733 399.743 49.9533 399.183 50.14C398.716 50.2333 398.39 50.3267 398.203 50.42C397.923 50.5133 397.503 50.56 396.943 50.56C396.476 50.4667 396.336 50.28 396.523 50C396.71 49.9067 396.756 49.8133 396.663 49.72C396.57 49.5333 396.523 49.3933 396.523 49.3C396.523 49.1133 396.616 48.9733 396.803 48.88C397.083 48.7867 397.27 48.6467 397.363 48.46C397.456 48.3667 397.69 48.04 398.063 47.48C398.53 46.92 398.716 46.5933 398.623 46.5C398.623 46.22 398.716 45.9867 398.903 45.8C398.903 45.6133 398.903 45.4733 398.903 45.38C398.903 45.1933 398.996 45.0533 399.183 44.96C399.556 44.8667 399.743 44.7267 399.743 44.54V42.86C399.743 42.4867 399.696 42.1133 399.603 41.74C399.603 41.3667 399.51 41.04 399.323 40.76C398.576 39.8267 397.363 39.36 395.683 39.36C394.47 39.36 393.303 39.64 392.183 40.2C390.97 40.76 389.943 41.6933 389.103 43C388.45 43.9333 388.123 44.9133 388.123 45.94C388.123 46.6867 388.263 47.4333 388.543 48.18C388.916 48.9267 389.243 49.6267 389.523 50.28C389.803 50.9333 390.176 51.7267 390.643 52.66C391.203 53.5933 391.623 54.34 391.903 54.9C392.37 55.6467 392.883 56.5333 393.443 57.56C394.003 58.4933 394.423 59.38 394.703 60.22C394.796 60.3133 394.703 60.4067 394.423 60.5C394.236 60.5 394.19 60.5933 394.283 60.78C394.376 60.9667 394.516 61.06 394.703 61.06C394.89 61.06 395.03 61.1533 395.123 61.34C395.31 61.62 395.31 61.8533 395.123 62.04C395.03 62.2267 395.03 62.5067 395.123 62.88C395.123 62.9733 395.216 63.0667 395.403 63.16C395.59 63.2533 395.683 63.3467 395.683 63.44C396.15 64.6533 396.383 65.6333 396.383 66.38C397.223 65.9133 398.156 65.3533 399.183 64.7C400.21 64.0467 400.77 63.44 400.863 62.88C400.956 62.6933 401.096 62.6467 401.283 62.74C401.563 62.74 401.703 62.8333 401.703 63.02C401.61 63.6733 400.816 64.56 399.323 65.68C397.923 66.8 396.85 67.5933 396.103 68.06C396.196 68.1533 396.15 68.3867 395.963 68.76C395.776 69.1333 395.73 69.4133 395.823 69.6C395.823 69.6933 395.776 69.8333 395.683 70.02C395.59 70.1133 395.496 70.2533 395.403 70.44C395.403 70.8133 395.31 71.0933 395.123 71.28V71.56L394.703 71.84C394.61 71.9333 394.47 72.1667 394.283 72.54C394.19 72.82 394.05 73.0533 393.863 73.24H393.443C393.256 73.4267 393.163 73.66 393.163 73.94C392.976 74.22 392.556 74.5467 391.903 74.92C391.25 75.2 390.83 75.48 390.643 75.76C390.643 75.76 390.596 75.76 390.503 75.76C390.41 75.76 390.27 75.8533 390.083 76.04H389.663C389.57 76.04 389.476 76.1333 389.383 76.32C389.29 76.4133 389.196 76.5067 389.103 76.6C388.823 76.6 388.683 76.6933 388.683 76.88C388.31 76.88 388.03 76.9267 387.843 77.02L386.443 77.3C386.07 77.6733 385.743 77.86 385.463 77.86L385.323 77.72C385.136 77.9067 384.996 78 384.903 78H384.343C384.25 78 384.156 78.0467 384.063 78.14C383.97 78.2333 383.876 78.28 383.783 78.28H383.503C383.41 78.28 383.316 78.28 383.223 78.28C383.223 78.3733 383.13 78.42 382.943 78.42C382.663 78.42 382.243 78.42 381.683 78.42C381.216 78.42 380.843 78.4667 380.563 78.56ZM379.163 77.3C379.163 77.3 379.256 77.3 379.443 77.3C379.723 77.2067 379.91 77.16 380.003 77.16C380.47 77.16 380.89 77.2067 381.263 77.3C381.636 77.3 382.01 77.3 382.383 77.3C382.57 77.3 382.663 77.2067 382.663 77.02H382.943C383.223 76.74 383.363 76.6933 383.363 76.88C383.456 77.0667 383.596 77.0667 383.783 76.88C383.97 76.88 384.063 76.8333 384.063 76.74L384.623 76.46C384.716 76.46 384.763 76.46 384.763 76.46C384.763 76.3667 384.81 76.32 384.903 76.32H385.183C385.37 76.32 385.556 76.2267 385.743 76.04C385.93 75.8533 386.023 75.76 386.023 75.76C386.023 75.76 386.163 75.62 386.443 75.34C386.443 75.34 386.49 75.34 386.583 75.34C386.676 75.2467 386.77 75.2 386.863 75.2C387.05 75.0133 387.236 74.92 387.423 74.92C387.423 74.8267 387.516 74.7333 387.703 74.64C387.89 74.4533 387.983 74.36 387.983 74.36C388.076 74.2667 388.17 74.22 388.263 74.22C388.45 74.1267 388.543 74.0333 388.543 73.94C388.73 73.94 389.103 73.6133 389.663 72.96C390.223 72.3067 390.596 71.5133 390.783 70.58C390.783 70.3933 390.503 70.5333 389.943 71C389.383 71.3733 389.103 71.56 389.103 71.56C388.823 71.6533 388.543 71.84 388.263 72.12C387.983 72.3067 387.75 72.4 387.563 72.4C387.47 72.4 387.33 72.4933 387.143 72.68C387.05 72.7733 386.956 72.82 386.863 72.82C386.77 72.82 386.723 72.8667 386.723 72.96C386.723 72.96 386.63 72.9133 386.443 72.82C386.35 73.0067 386.07 73.1933 385.603 73.38C385.136 73.5667 384.81 73.66 384.623 73.66H384.203L384.063 73.8C384.063 73.8 384.016 73.8467 383.923 73.94C383.83 73.94 383.736 73.94 383.643 73.94L382.663 74.08H382.523C382.43 74.08 382.336 74.1267 382.243 74.22C381.87 74.22 381.45 74.2667 380.983 74.36C380.516 74.4533 380.236 74.5 380.143 74.5H380.003C380.003 74.4067 379.956 74.36 379.863 74.36V74.5H379.163C378.883 74.5 378.556 74.4533 378.183 74.36C377.903 74.1733 377.67 74.08 377.483 74.08C377.39 74.08 377.343 74.1267 377.343 74.22C377.343 74.22 377.296 74.22 377.203 74.22H376.923C376.83 74.22 376.783 74.1733 376.783 74.08H376.083C376.083 73.8 375.99 73.7533 375.803 73.94H375.663C375.29 73.94 374.963 73.8 374.683 73.52C374.496 73.24 374.17 73.1 373.703 73.1L373.283 72.68C373.283 72.7733 373.236 72.8667 373.143 72.96C373.143 72.96 373.143 73.0067 373.143 73.1C373.143 73.1 373.19 73.1933 373.283 73.38C373.47 73.4733 373.563 73.5667 373.563 73.66L373.843 74.22L374.403 74.92L374.683 75.2C374.776 75.2933 374.823 75.34 374.823 75.34C374.916 75.34 375.01 75.4333 375.103 75.62C375.29 75.62 375.383 75.76 375.383 76.04C376.97 76.88 378.23 77.3 379.163 77.3ZM405.127 83.04C404.941 82.48 404.847 81.92 404.847 81.36C404.847 81.08 404.894 80.8 404.987 80.52C404.987 80.3333 405.034 80.1 405.127 79.82C405.221 79.54 405.454 78.7933 405.828 77.58C406.294 76.3667 406.714 75.1067 407.088 73.8C407.554 72.4933 407.881 71.7467 408.068 71.56C408.068 71.56 408.348 70.86 408.908 69.46C409.561 67.9667 410.261 66.4267 411.008 64.84C411.754 63.16 412.314 62.0867 412.688 61.62C413.154 60.5933 413.854 59.3333 414.788 57.84C415.814 56.2533 416.794 54.3867 417.728 52.24V51.54C417.728 51.26 417.728 51.0267 417.728 50.84C417.821 50.56 417.914 50.28 418.008 50C418.381 49.2533 418.708 48.74 418.988 48.46C419.361 48.18 419.734 47.6667 420.108 46.92C420.108 46.7333 420.108 46.5467 420.108 46.36C420.201 46.1733 420.294 45.9867 420.388 45.8C420.201 45.9867 420.154 45.8467 420.248 45.38C420.061 45.38 420.248 44.9133 420.808 43.98C421.181 43.14 421.461 42.6733 421.648 42.58H421.788C422.161 42.02 422.488 41.5533 422.768 41.18C423.048 40.7133 423.141 40.4333 423.048 40.34V40.06C423.048 39.4067 423.234 38.8 423.608 38.24C424.074 37.68 424.494 37.0733 424.868 36.42C425.148 36.0467 425.381 35.86 425.568 35.86C425.754 35.86 425.848 35.9067 425.848 36C425.941 36 426.034 36 426.128 36C426.408 36 426.548 35.7667 426.548 35.3C426.548 35.1133 426.501 34.88 426.408 34.6C426.408 34.32 426.361 33.9933 426.267 33.62C426.361 33.1533 426.734 32.78 427.388 32.5L427.808 32.36C428.274 30.4 428.834 29.0933 429.488 28.44C429.674 28.2533 429.861 28.0667 430.048 27.88C430.234 27.6933 430.421 27.5067 430.608 27.32C431.728 26.1067 432.568 24.8 433.128 23.4C433.314 23.0267 433.548 22.7467 433.828 22.56C434.201 22.28 434.528 21.9533 434.808 21.58C434.994 21.3 435.041 21.02 434.948 20.74C434.948 20.3667 434.994 20.04 435.088 19.76C435.554 19.0133 435.881 18.5933 436.068 18.5C436.254 18.4067 436.441 18.3133 436.628 18.22C436.908 18.0333 437.374 17.6133 438.028 16.96C438.308 16.4933 438.588 16.0267 438.868 15.56C439.241 15.0933 439.614 14.6267 439.988 14.16C440.548 13.5067 441.154 13.04 441.808 12.76C442.461 12.48 443.114 12.06 443.768 11.5C443.954 11.3133 444.048 11.0333 444.048 10.66C444.048 10.1933 444.141 9.86666 444.328 9.68C447.594 7.06666 451.094 4.87333 454.828 3.1C458.654 1.32666 461.594 0.439997 463.648 0.439997C464.394 0.439997 465.094 0.486663 465.748 0.579995C466.494 0.673328 467.194 0.813329 467.848 0.999998H468.128C468.594 0.999998 469.061 1.09333 469.528 1.27999C469.994 1.46666 470.414 1.65333 470.788 1.84C471.161 1.84 471.628 1.93333 472.188 2.11999C472.654 2.30666 472.934 2.58666 473.028 2.96C473.121 3.33333 473.028 3.61333 472.748 3.8C472.654 3.89333 472.514 3.89333 472.328 3.8C472.141 3.70666 471.954 3.66 471.768 3.66C471.581 3.66 471.394 3.56666 471.208 3.37999C471.021 3.19333 470.834 3.05333 470.648 2.96C470.274 2.96 469.854 3.00666 469.388 3.1C469.014 3.19333 468.594 3.23999 468.128 3.23999H467.708C467.054 3.23999 466.588 3.14666 466.308 2.96C466.121 2.68 465.654 2.63333 464.908 2.82C464.814 2.82 464.534 2.86667 464.068 2.96C463.601 3.05333 463.274 3.1 463.088 3.1C459.728 3.94 456.788 5.34 454.268 7.3C451.748 9.16667 449.508 11.2667 447.548 13.6C445.681 15.9333 443.861 18.1733 442.088 20.32C441.248 22 440.408 23.3533 439.568 24.38C439.474 24.4733 439.381 24.4267 439.288 24.24C439.194 24.0533 439.101 24.0533 439.008 24.24C438.728 24.52 438.494 24.9867 438.308 25.64C438.214 26.2 438.028 26.6667 437.748 27.04C437.654 27.1333 437.561 27.0867 437.468 26.9C437.374 26.7133 437.234 26.7133 437.048 26.9C436.954 26.9933 436.814 27.3667 436.628 28.02C436.534 28.58 436.394 28.9533 436.208 29.14C435.088 30.6333 433.874 32.08 432.568 33.48C431.261 34.88 429.954 36.5133 428.648 38.38C426.781 41.2733 425.008 44.12 423.328 46.92C421.648 49.72 419.874 52.8 418.008 56.16C417.354 57.28 416.841 58.3067 416.468 59.24C416.188 60.08 415.861 60.8733 415.488 61.62C415.301 61.9 415.208 62.2733 415.208 62.74C415.208 63.3933 415.581 63.72 416.328 63.72C416.888 63.72 417.448 63.58 418.008 63.3L419.968 62.46H420.248C420.528 62.46 420.714 62.6 420.808 62.88C420.994 63.0667 420.808 63.3467 420.248 63.72C419.874 63.9067 419.641 64.14 419.548 64.42C419.454 64.7 419.221 65.0733 418.848 65.54C418.661 65.7267 418.381 66.0533 418.008 66.52C417.728 66.9867 417.588 67.2667 417.588 67.36C417.494 67.64 417.354 67.7333 417.168 67.64C417.074 67.5467 416.794 67.6867 416.328 68.06C416.234 68.1533 416.141 68.34 416.048 68.62C416.048 68.9 416.001 69.1333 415.908 69.32C415.814 69.6 415.628 69.8333 415.348 70.02C415.161 70.1133 415.068 70.2067 415.068 70.3C414.974 70.6733 414.788 70.9067 414.508 71C414.321 71 414.134 71.0933 413.948 71.28C413.854 71.3733 413.854 71.5133 413.948 71.7C414.041 71.8867 413.994 72.0733 413.808 72.26L412.408 75.2C412.314 75.3867 412.174 75.5733 411.988 75.76C411.894 75.9467 411.754 76.0867 411.568 76.18C411.474 76.18 411.288 76.1333 411.008 76.04C410.821 75.9467 410.728 75.9933 410.728 76.18C410.634 76.2733 410.634 76.5533 410.728 77.02C410.914 77.3933 410.868 77.6733 410.588 77.86C410.308 78.0467 410.028 78.42 409.748 78.98C409.561 79.6333 409.374 80.0533 409.188 80.24C408.814 80.6133 408.488 80.8467 408.208 80.94C407.928 81.1267 407.648 81.4067 407.368 81.78C407.274 81.8733 406.948 82.2467 406.388 82.9C405.828 83.6467 405.407 83.6933 405.127 83.04ZM448.528 78.42C448.248 78.42 447.968 78.42 447.688 78.42C447.408 78.42 447.128 78.3733 446.847 78.28C445.168 77.9067 443.814 76.8333 442.788 75.06C441.854 73.1933 441.108 71.0467 440.548 68.62C440.081 66.1 439.754 63.6267 439.568 61.2C439.474 58.68 439.428 56.6267 439.428 55.04C439.334 52.52 438.681 51.26 437.468 51.26C436.908 51.26 436.254 51.4933 435.508 51.96C435.414 52.1467 435.228 52.2867 434.948 52.38C434.761 52.38 434.481 52.4733 434.108 52.66L433.688 53.08C433.688 53.1733 433.594 53.22 433.408 53.22C433.221 53.1267 433.128 53.1267 433.128 53.22C433.221 53.8733 433.034 54.06 432.568 53.78C432.008 54.1533 431.588 54.48 431.308 54.76C431.308 54.8533 431.214 54.9933 431.028 55.18L430.888 55.32C430.794 55.4133 430.701 55.5533 430.608 55.74C430.514 55.8333 430.328 55.8333 430.048 55.74L429.628 56.16C429.628 56.2533 429.581 56.3933 429.488 56.58C429.394 56.7667 429.208 56.8133 428.928 56.72L428.228 57.28C427.761 58.0267 427.294 58.4 426.828 58.4L425.848 59.66L425.428 59.8C425.428 60.1733 425.101 60.4533 424.448 60.64C424.354 60.7333 424.028 60.9667 423.468 61.34C422.908 61.62 422.628 61.76 422.628 61.76C422.441 61.6667 422.208 61.62 421.928 61.62C421.741 61.62 421.834 61.34 422.208 60.78C422.301 60.5933 422.488 60.4533 422.768 60.36C423.048 60.1733 423.374 59.8933 423.748 59.52C424.028 59.1467 424.261 58.7733 424.448 58.4C424.728 58.0267 424.914 57.84 425.008 57.84L427.388 55.74C427.574 56.1133 427.668 56.1133 427.668 55.74C427.668 55.3667 427.761 55.2267 427.948 55.32C428.228 54.9467 428.508 54.62 428.788 54.34C429.161 54.06 429.534 53.78 429.908 53.5C429.908 53.4067 430.094 53.22 430.468 52.94C430.841 52.7533 431.074 52.66 431.168 52.66C431.261 52.66 431.448 52.4733 431.728 52.1L432.568 51.54C432.661 51.3533 432.754 51.3533 432.848 51.54C433.034 51.7267 433.174 51.7733 433.268 51.68L433.408 50.84C433.501 50.56 433.734 50.3267 434.108 50.14C434.574 49.9533 434.994 49.72 435.368 49.44C436.301 48.5067 437.048 48.04 437.608 48.04C437.701 48.1333 437.888 48.1333 438.168 48.04C438.914 47.6667 439.848 47.48 440.968 47.48C442.368 47.48 443.534 47.9933 444.468 49.02C444.748 49.3 445.028 49.72 445.308 50.28C445.308 50.28 445.401 50.56 445.588 51.12L445.868 52.24C446.054 52.7067 445.914 53.0333 445.448 53.22C445.914 53.5933 446.101 53.8267 446.008 53.92C445.914 54.0133 445.868 54.1533 445.868 54.34L446.008 56.02V56.86C446.008 57.14 446.008 57.42 446.008 57.7C446.008 57.8867 445.961 58.2133 445.868 58.68C446.334 59.1467 446.381 59.4267 446.008 59.52C446.008 59.52 445.961 59.5667 445.868 59.66C445.868 59.66 445.821 59.66 445.728 59.66V60.08L446.148 60.5L445.868 61.34C445.961 61.2467 446.008 61.2 446.008 61.2C446.101 61.2 446.148 61.2 446.148 61.2L445.728 63.72C445.728 64.56 445.821 65.2133 446.008 65.68C446.194 66.0533 446.101 66.24 445.728 66.24H445.588C445.774 66.6133 445.868 66.8933 445.868 67.08C445.868 67.4533 445.821 67.78 445.728 68.06C445.634 68.2467 445.588 68.5267 445.588 68.9V69.04C445.774 69.32 445.914 69.7867 446.008 70.44C446.194 71.0933 446.288 71.7 446.288 72.26C446.288 72.82 446.241 73.1933 446.148 73.38L446.288 73.52C446.474 73.7067 446.661 73.8933 446.847 74.08C447.128 74.1733 447.174 74.3133 446.988 74.5C446.801 74.6867 446.801 74.78 446.988 74.78C447.174 74.9667 447.314 75.06 447.408 75.06C447.781 75.2467 448.061 75.34 448.248 75.34L448.528 75.48C448.621 75.5733 448.714 75.62 448.808 75.62C450.674 75.9 452.494 74.9667 454.268 72.82C454.454 72.54 454.688 72.4 454.968 72.4C455.154 72.4 455.294 72.54 455.388 72.82C455.574 73.1 455.528 73.4267 455.248 73.8C454.034 75.5733 452.868 76.7867 451.748 77.44C450.628 78.0933 449.554 78.42 448.528 78.42ZM457.53 78.42C456.97 78.42 456.69 78.0933 456.69 77.44C456.69 76.9733 456.83 76.4133 457.11 75.76C457.857 74.1733 458.697 71.9333 459.63 69.04C460.657 66.1467 461.917 63.6733 463.41 61.62C463.877 60.5933 464.577 59.3333 465.51 57.84C466.537 56.2533 467.517 54.3867 468.45 52.24V51.54C468.45 51.26 468.45 51.0267 468.45 50.84C468.543 50.56 468.637 50.28 468.73 50C469.103 49.2533 469.43 48.74 469.71 48.46C470.083 48.18 470.457 47.6667 470.83 46.92C470.83 46.7333 470.83 46.5467 470.83 46.36C470.923 46.1733 471.017 45.9867 471.11 45.8C470.923 45.9867 470.877 45.8467 470.97 45.38C470.783 45.38 470.97 44.9133 471.53 43.98C471.903 43.14 472.183 42.6733 472.37 42.58H472.51C472.883 42.02 473.21 41.5533 473.49 41.18C473.77 40.7133 473.863 40.4333 473.77 40.34V40.06C473.77 39.4067 473.957 38.8 474.33 38.24C474.797 37.68 475.217 37.0733 475.59 36.42C475.87 36.0467 476.103 35.86 476.29 35.86C476.477 35.86 476.57 35.9067 476.57 36C476.663 36 476.757 36 476.85 36C477.13 36 477.27 35.7667 477.27 35.3C477.27 35.1133 477.223 34.88 477.13 34.6C477.13 34.32 477.083 33.9933 476.99 33.62C477.083 33.1533 477.457 32.78 478.11 32.5L478.53 32.36C478.997 30.4 479.557 29.0933 480.21 28.44C480.397 28.2533 480.583 28.0667 480.77 27.88C480.957 27.6933 481.143 27.5067 481.33 27.32C482.45 26.1067 483.29 24.8 483.85 23.4C484.037 23.0267 484.27 22.7467 484.55 22.56C484.923 22.28 485.25 21.9533 485.53 21.58C485.717 21.3 485.763 21.02 485.67 20.74C485.67 20.3667 485.717 20.04 485.81 19.76C486.277 19.0133 486.603 18.5933 486.79 18.5C486.977 18.4067 487.163 18.3133 487.35 18.22C487.63 18.0333 488.097 17.6133 488.75 16.96C489.03 16.4933 489.31 16.0267 489.59 15.56C489.963 15.0933 490.337 14.6267 490.71 14.16C491.27 13.5067 491.877 13.04 492.53 12.76C493.183 12.48 493.837 12.06 494.49 11.5C494.677 11.3133 494.77 11.0333 494.77 10.66C494.77 10.1933 494.863 9.86666 495.05 9.68C498.317 7.06666 501.817 4.87333 505.55 3.1C509.377 1.32666 512.317 0.439997 514.37 0.439997C515.117 0.439997 515.817 0.486663 516.47 0.579995C517.217 0.673328 517.917 0.813329 518.57 0.999998H518.85C519.317 0.999998 519.783 1.09333 520.25 1.27999C520.717 1.46666 521.137 1.65333 521.51 1.84C521.883 1.84 522.35 1.93333 522.91 2.11999C523.377 2.30666 523.657 2.58666 523.75 2.96C523.843 3.33333 523.75 3.61333 523.47 3.8C523.377 3.89333 523.237 3.89333 523.05 3.8C522.863 3.70666 522.677 3.66 522.49 3.66C522.303 3.66 522.117 3.56666 521.93 3.37999C521.743 3.19333 521.557 3.05333 521.37 2.96C520.997 2.96 520.577 3.00666 520.11 3.1C519.737 3.19333 519.317 3.23999 518.85 3.23999H518.43C517.777 3.23999 517.31 3.14666 517.03 2.96C516.843 2.68 516.377 2.63333 515.63 2.82C515.537 2.82 515.257 2.86667 514.79 2.96C514.323 3.05333 513.997 3.1 513.81 3.1C510.45 3.94 507.51 5.34 504.99 7.3C502.47 9.16667 500.23 11.2667 498.27 13.6C496.403 15.9333 494.583 18.1733 492.81 20.32C491.97 22 491.13 23.3533 490.29 24.38C490.197 24.4733 490.103 24.4267 490.01 24.24C489.917 24.0533 489.823 24.0533 489.73 24.24C489.45 24.52 489.217 24.9867 489.03 25.64C488.937 26.2 488.75 26.6667 488.47 27.04C488.377 27.1333 488.283 27.0867 488.19 26.9C488.097 26.7133 487.957 26.7133 487.77 26.9C487.677 26.9933 487.537 27.3667 487.35 28.02C487.257 28.58 487.117 28.9533 486.93 29.14C485.81 30.6333 484.597 32.08 483.29 33.48C481.983 34.88 480.677 36.5133 479.37 38.38C477.503 41.2733 475.73 44.12 474.05 46.92C472.37 49.72 470.597 52.8 468.73 56.16C468.077 57.28 467.563 58.3067 467.19 59.24C466.91 60.08 466.583 60.8733 466.21 61.62C466.023 61.9 465.93 62.2733 465.93 62.74C465.93 63.3933 466.303 63.72 467.05 63.72C467.61 63.72 468.17 63.58 468.73 63.3L470.13 62.74C472.37 60.6867 474.703 58.96 477.13 57.56C477.223 57.56 477.27 57.56 477.27 57.56C477.363 57.4667 477.457 57.42 477.55 57.42C477.83 57.42 478.017 57.6067 478.11 57.98C478.203 58.26 478.11 58.4933 477.83 58.68C475.123 60.1733 472.603 62.0867 470.27 64.42C470.177 64.6067 470.083 64.7933 469.99 64.98C469.897 65.1667 469.757 65.3533 469.57 65.54C469.383 65.7267 469.103 66.0533 468.73 66.52C468.45 66.9867 468.31 67.2667 468.31 67.36C468.217 67.64 468.077 67.7333 467.89 67.64C467.797 67.5467 467.517 67.6867 467.05 68.06C466.957 68.1533 466.863 68.34 466.77 68.62C466.77 68.9 466.723 69.1333 466.63 69.32C466.537 69.6 466.35 69.8333 466.07 70.02C465.883 70.1133 465.79 70.2067 465.79 70.3C465.697 70.6733 465.51 70.9067 465.23 71C465.043 71 464.857 71.0933 464.67 71.28C464.577 71.3733 464.577 71.5133 464.67 71.7C464.763 71.8867 464.717 72.0733 464.53 72.26C464.437 72.54 464.343 72.68 464.25 72.68C464.157 72.5867 464.017 72.6333 463.83 72.82C463.457 73.1933 463.177 73.38 462.99 73.38C462.43 73.5667 462.197 73.7067 462.29 73.8C462.477 73.8933 462.617 73.9867 462.71 74.08C462.897 74.08 462.757 74.22 462.29 74.5C462.103 74.5933 461.917 74.8733 461.73 75.34C461.543 75.7133 461.357 75.9933 461.17 76.18C460.89 76.3667 460.61 76.5067 460.33 76.6C460.143 76.6933 459.91 76.88 459.63 77.16C458.79 78 458.09 78.42 457.53 78.42ZM503.009 34.32C502.729 34.32 502.449 34.2267 502.169 34.04C501.983 33.8533 501.703 33.62 501.329 33.34C501.143 33.2467 500.909 33.1533 500.629 33.06C500.443 32.8733 500.349 32.5933 500.349 32.22C500.256 32.1267 500.069 32.08 499.789 32.08C499.323 32.08 499.089 31.7533 499.089 31.1C499.089 30.3533 499.463 29.84 500.209 29.56L500.909 29V29.14L501.469 28.44H501.749C502.309 28.44 502.683 28.16 502.869 27.6C503.149 27.04 503.709 26.6667 504.549 26.48C505.109 26.2933 505.576 26.34 505.949 26.62C506.323 26.9 506.789 27.04 507.349 27.04C507.909 27.04 508.516 26.8533 509.169 26.48L511.269 26.06C511.549 26.06 511.689 26.1533 511.689 26.34C511.689 26.5267 511.409 26.76 510.849 27.04C510.383 27.32 510.056 27.5533 509.869 27.74L509.729 27.88L509.589 28.16L509.029 28.86C508.469 29.5133 507.816 30.3067 507.069 31.24C506.416 32.08 505.716 32.78 504.969 33.34C504.129 33.9933 503.476 34.32 503.009 34.32ZM481.729 78.42C481.169 78.42 480.889 78.0933 480.889 77.44C480.889 76.9733 481.029 76.4133 481.309 75.76C482.056 74.1733 482.896 71.9333 483.829 69.04C484.856 66.1467 486.116 63.6733 487.609 61.62C488.636 59.5667 489.569 57.56 490.409 55.6C491.343 53.5467 492.229 51.4933 493.069 49.44C493.069 49.44 492.976 49.3933 492.789 49.3C492.696 49.1133 492.649 48.9267 492.649 48.74C492.089 48.3667 491.483 47.8533 490.829 47.2C490.269 46.4533 490.223 45.7067 490.689 44.96C490.876 44.7733 491.016 44.68 491.109 44.68C491.203 44.68 491.249 44.68 491.249 44.68C491.249 44.5867 491.203 44.54 491.109 44.54C491.109 44.4467 491.109 44.4 491.109 44.4C491.109 44.0267 491.296 43.7933 491.669 43.7C492.043 43.6067 492.229 43.4667 492.229 43.28C492.416 41.9733 493.536 40.9933 495.589 40.34C497.643 39.6867 499.463 39.36 501.049 39.36C502.636 39.36 503.429 39.5933 503.429 40.06C503.429 40.2467 503.149 40.5733 502.589 41.04C502.309 41.2267 501.843 41.6467 501.189 42.3C500.536 42.9533 499.929 43.7467 499.369 44.68L498.249 46.36C498.156 46.5467 498.016 46.78 497.829 47.06C497.736 47.2467 497.596 47.4333 497.409 47.62C495.916 50.3267 494.703 52.6133 493.769 54.48C492.836 56.3467 491.716 58.7267 490.409 61.62C490.223 62.18 490.129 62.5533 490.129 62.74C490.129 63.3933 490.503 63.72 491.249 63.72C491.809 63.72 492.369 63.58 492.929 63.3L494.329 62.74C496.569 60.6867 498.903 58.96 501.329 57.56C501.423 57.56 501.469 57.56 501.469 57.56C501.563 57.4667 501.656 57.42 501.749 57.42C502.029 57.42 502.216 57.6067 502.309 57.98C502.403 58.26 502.309 58.4933 502.029 58.68C499.323 60.1733 496.803 62.0867 494.469 64.42C494.376 64.6067 494.283 64.7933 494.189 64.98C494.096 65.1667 493.956 65.3533 493.769 65.54C493.583 65.7267 493.303 66.0533 492.929 66.52C492.649 66.9867 492.509 67.2667 492.509 67.36C492.416 67.64 492.276 67.7333 492.089 67.64C491.996 67.5467 491.716 67.6867 491.249 68.06C491.156 68.1533 491.063 68.34 490.969 68.62C490.969 68.9 490.923 69.1333 490.829 69.32C490.736 69.6 490.549 69.8333 490.269 70.02C490.083 70.1133 489.989 70.2067 489.989 70.3C489.896 70.6733 489.709 70.9067 489.429 71C489.243 71 489.056 71.0933 488.869 71.28C488.776 71.3733 488.776 71.5133 488.869 71.7C488.963 71.8867 488.916 72.0733 488.729 72.26C488.636 72.54 488.543 72.68 488.449 72.68C488.356 72.5867 488.216 72.6333 488.029 72.82C487.656 73.1933 487.376 73.38 487.189 73.38C486.629 73.5667 486.396 73.7067 486.489 73.8C486.676 73.8933 486.816 73.9867 486.909 74.08C487.096 74.08 486.956 74.22 486.489 74.5C486.303 74.5933 486.116 74.8733 485.929 75.34C485.743 75.7133 485.556 75.9933 485.369 76.18C485.089 76.3667 484.809 76.5067 484.529 76.6C484.343 76.6933 484.109 76.88 483.829 77.16C482.989 78 482.289 78.42 481.729 78.42ZM517.008 78.56C516.915 78.56 516.775 78.4667 516.588 78.28C516.402 78.1867 516.262 78.14 516.168 78.14C515.795 78.2333 515.468 78.28 515.188 78.28C514.908 78.28 514.628 78.28 514.348 78.28C514.255 78.28 514.162 78.2333 514.068 78.14C514.068 78.0467 514.022 78 513.928 78C513.835 78 513.788 78 513.788 78C513.882 78.0933 513.882 78.14 513.788 78.14C513.788 78.14 513.695 78.0933 513.508 78C513.322 77.9067 513.182 77.86 513.088 77.86L512.948 77.72C512.762 77.72 512.622 77.6733 512.528 77.58C512.528 77.4867 512.482 77.44 512.388 77.44L512.248 77.58L512.108 77.44C511.922 77.3467 511.642 77.2533 511.268 77.16C510.988 76.9733 510.755 76.8333 510.568 76.74C510.382 76.74 510.148 76.6 509.868 76.32H509.588C509.402 76.04 509.075 75.8533 508.608 75.76C508.608 75.6667 508.562 75.5733 508.468 75.48H508.328C508.142 75.2 508.002 75.1067 507.908 75.2C507.815 75.0133 507.675 74.8733 507.488 74.78C507.395 74.5933 507.255 74.4533 507.068 74.36C507.068 73.9867 506.975 73.8 506.788 73.8C506.788 73.6133 506.602 73.3333 506.228 72.96C505.948 72.5867 505.762 72.26 505.668 71.98L505.528 71.84C505.155 71.4667 504.875 70.86 504.688 70.02C504.595 69.6467 504.502 69.5067 504.408 69.6C504.408 69.6933 504.362 69.46 504.268 68.9C504.268 68.8067 504.268 68.6667 504.268 68.48C504.362 68.2 504.362 68.0133 504.268 67.92C504.268 67.8267 504.222 67.78 504.128 67.78C504.128 67.6867 504.128 67.5933 504.128 67.5C504.035 67.4067 503.988 67.36 503.988 67.36C504.082 67.2667 504.128 67.22 504.128 67.22C504.128 67.0333 504.082 66.94 503.988 66.94C503.988 66.8467 503.988 66.7533 503.988 66.66V66.38C503.988 65.9133 504.082 65.5867 504.268 65.4C504.268 65.2133 504.315 65.0733 504.408 64.98C504.502 64.8867 504.548 64.7933 504.548 64.7C504.548 64.5133 504.642 64.42 504.828 64.42C505.015 64.42 505.108 64.3733 505.108 64.28C505.108 64.0933 505.155 64 505.248 64C505.435 63.9067 505.575 63.8133 505.668 63.72C505.668 63.6267 505.715 63.5333 505.808 63.44C505.995 63.3467 506.088 63.2533 506.088 63.16C506.555 62.88 507.068 62.74 507.628 62.74C508.748 62.74 509.308 63.02 509.308 63.58C509.308 63.7667 509.028 64.0933 508.468 64.56C508.375 64.84 508.328 65.0267 508.328 65.12C508.422 65.12 508.375 65.2133 508.188 65.4C508.282 65.68 508.328 66.0533 508.328 66.52C508.235 66.52 508.188 66.66 508.188 66.94C508.282 67.1267 508.328 67.22 508.328 67.22C508.328 67.3133 508.375 67.5933 508.468 68.06C508.655 68.5267 508.795 68.8067 508.888 68.9C508.888 68.9 508.982 69.1333 509.168 69.6C509.355 69.9733 509.448 70.2067 509.448 70.3V70.58C509.635 70.86 509.728 71.0467 509.728 71.14C509.822 71.14 510.195 71.3267 510.848 71.7C510.942 71.7933 511.128 71.84 511.408 71.84C511.875 72.12 512.202 72.3533 512.388 72.54C512.668 72.7267 513.322 72.9133 514.348 73.1C514.722 73.1933 514.862 73.2867 514.768 73.38C514.768 73.38 514.955 73.38 515.328 73.38C515.328 73.38 515.328 73.4267 515.328 73.52C515.328 73.52 515.375 73.52 515.468 73.52C515.655 73.4267 515.842 73.4267 516.028 73.52C516.215 73.52 516.402 73.4733 516.588 73.38H517.148C517.802 73.38 518.502 73.2867 519.248 73.1L521.348 72.54C522.002 72.4467 522.608 72.26 523.168 71.98C523.728 71.7 524.242 71.42 524.708 71.14C524.802 71.14 525.082 71 525.548 70.72C526.015 70.3467 526.575 69.9733 527.228 69.6C527.135 69.32 527.088 68.9467 527.088 68.48C527.088 68.2 527.228 68.06 527.508 68.06C527.788 67.9667 527.975 67.8267 528.068 67.64C527.788 67.4533 527.415 67.36 526.948 67.36C526.575 67.36 526.435 67.22 526.528 66.94C526.155 64.8867 525.595 63.02 524.848 61.34C524.195 59.66 523.402 57.7933 522.468 55.74C522.375 55.46 522.188 54.9933 521.908 54.34C521.628 53.6867 521.442 53.1733 521.348 52.8C521.348 52.7067 521.442 52.7067 521.628 52.8C521.815 52.8 521.862 52.7533 521.768 52.66C521.675 52.1933 521.582 51.7267 521.488 51.26C521.488 50.7933 521.442 50.3733 521.348 50C521.255 49.8133 521.348 49.6733 521.628 49.58C521.908 49.4867 522.002 49.3467 521.908 49.16C521.815 48.9733 521.628 48.9267 521.348 49.02C521.068 49.1133 520.882 49.0667 520.788 48.88L520.368 47.2C520.368 46.7333 520.275 46.4533 520.088 46.36C519.995 46.2667 520.088 46.08 520.368 45.8C520.555 45.7067 520.648 45.5667 520.648 45.38C520.648 45.1 520.695 44.9133 520.788 44.82C521.255 44.54 521.442 44.2133 521.348 43.84C521.255 43.3733 521.348 42.9533 521.628 42.58C521.908 42.2067 522.142 41.88 522.328 41.6C522.515 41.2267 522.795 40.9933 523.168 40.9C523.448 40.7133 523.542 40.76 523.448 41.04C523.355 41.32 523.355 41.46 523.448 41.46C523.915 41.46 524.102 41.2267 524.008 40.76C523.915 40.2933 524.055 39.8733 524.428 39.5C525.082 38.94 526.062 38.4733 527.368 38.1C528.675 37.7267 529.655 37.4933 530.308 37.4C530.495 37.4 530.635 37.4 530.728 37.4C530.915 37.3067 531.055 37.26 531.148 37.26C531.615 37.26 532.082 37.3067 532.548 37.4C533.108 37.4933 533.622 37.5867 534.088 37.68C534.462 37.7733 535.022 38.1467 535.768 38.8C536.515 39.36 537.075 39.5 537.448 39.22C538.288 38.4733 539.175 37.82 540.108 37.26C541.135 36.7 541.788 36.4667 542.068 36.56C542.815 36.6533 543.468 36.8867 544.028 37.26C544.588 37.54 544.775 38.4733 544.588 40.06C544.495 40.62 544.262 41.0867 543.888 41.46C543.608 41.74 543.328 42.1133 543.048 42.58L542.068 43.98C541.695 44.6333 541.228 45.2867 540.668 45.94C540.202 46.5933 539.782 47.0133 539.408 47.2C539.035 47.3867 538.662 47.7133 538.288 48.18C538.008 48.5533 537.635 48.9267 537.168 49.3C536.702 49.6733 536.188 49.9533 535.628 50.14C535.162 50.2333 534.835 50.3267 534.648 50.42C534.368 50.5133 533.948 50.56 533.388 50.56C532.922 50.4667 532.782 50.28 532.968 50C533.155 49.9067 533.202 49.8133 533.108 49.72C533.015 49.5333 532.968 49.3933 532.968 49.3C532.968 49.1133 533.062 48.9733 533.248 48.88C533.528 48.7867 533.715 48.6467 533.808 48.46C533.902 48.3667 534.135 48.04 534.508 47.48C534.975 46.92 535.162 46.5933 535.068 46.5C535.068 46.22 535.162 45.9867 535.348 45.8C535.348 45.6133 535.348 45.4733 535.348 45.38C535.348 45.1933 535.442 45.0533 535.628 44.96C536.002 44.8667 536.188 44.7267 536.188 44.54V42.86C536.188 42.4867 536.142 42.1133 536.048 41.74C536.048 41.3667 535.955 41.04 535.768 40.76C535.022 39.8267 533.808 39.36 532.128 39.36C530.915 39.36 529.748 39.64 528.628 40.2C527.415 40.76 526.388 41.6933 525.548 43C524.895 43.9333 524.568 44.9133 524.568 45.94C524.568 46.6867 524.708 47.4333 524.988 48.18C525.362 48.9267 525.688 49.6267 525.968 50.28C526.248 50.9333 526.622 51.7267 527.088 52.66C527.648 53.5933 528.068 54.34 528.348 54.9C528.815 55.6467 529.328 56.5333 529.888 57.56C530.448 58.4933 530.868 59.38 531.148 60.22C531.242 60.3133 531.148 60.4067 530.868 60.5C530.682 60.5 530.635 60.5933 530.728 60.78C530.822 60.9667 530.962 61.06 531.148 61.06C531.335 61.06 531.475 61.1533 531.568 61.34C531.755 61.62 531.755 61.8533 531.568 62.04C531.475 62.2267 531.475 62.5067 531.568 62.88C531.568 62.9733 531.662 63.0667 531.848 63.16C532.035 63.2533 532.128 63.3467 532.128 63.44C532.595 64.6533 532.828 65.6333 532.828 66.38C533.668 65.9133 534.602 65.3533 535.628 64.7C536.655 64.0467 537.215 63.44 537.308 62.88C537.402 62.6933 537.542 62.6467 537.728 62.74C538.008 62.74 538.148 62.8333 538.148 63.02C538.055 63.6733 537.262 64.56 535.768 65.68C534.368 66.8 533.295 67.5933 532.548 68.06C532.642 68.1533 532.595 68.3867 532.408 68.76C532.222 69.1333 532.175 69.4133 532.268 69.6C532.268 69.6933 532.222 69.8333 532.128 70.02C532.035 70.1133 531.942 70.2533 531.848 70.44C531.848 70.8133 531.755 71.0933 531.568 71.28V71.56L531.148 71.84C531.055 71.9333 530.915 72.1667 530.728 72.54C530.635 72.82 530.495 73.0533 530.308 73.24H529.888C529.702 73.4267 529.608 73.66 529.608 73.94C529.422 74.22 529.002 74.5467 528.348 74.92C527.695 75.2 527.275 75.48 527.088 75.76C527.088 75.76 527.042 75.76 526.948 75.76C526.855 75.76 526.715 75.8533 526.528 76.04H526.108C526.015 76.04 525.922 76.1333 525.828 76.32C525.735 76.4133 525.642 76.5067 525.548 76.6C525.268 76.6 525.128 76.6933 525.128 76.88C524.755 76.88 524.475 76.9267 524.288 77.02L522.888 77.3C522.515 77.6733 522.188 77.86 521.908 77.86L521.768 77.72C521.582 77.9067 521.442 78 521.348 78H520.788C520.695 78 520.602 78.0467 520.508 78.14C520.415 78.2333 520.322 78.28 520.228 78.28H519.948C519.855 78.28 519.762 78.28 519.668 78.28C519.668 78.3733 519.575 78.42 519.388 78.42C519.108 78.42 518.688 78.42 518.128 78.42C517.662 78.42 517.288 78.4667 517.008 78.56ZM515.608 77.3C515.608 77.3 515.702 77.3 515.888 77.3C516.168 77.2067 516.355 77.16 516.448 77.16C516.915 77.16 517.335 77.2067 517.708 77.3C518.082 77.3 518.455 77.3 518.828 77.3C519.015 77.3 519.108 77.2067 519.108 77.02H519.388C519.668 76.74 519.808 76.6933 519.808 76.88C519.902 77.0667 520.042 77.0667 520.228 76.88C520.415 76.88 520.508 76.8333 520.508 76.74L521.068 76.46C521.162 76.46 521.208 76.46 521.208 76.46C521.208 76.3667 521.255 76.32 521.348 76.32H521.628C521.815 76.32 522.002 76.2267 522.188 76.04C522.375 75.8533 522.468 75.76 522.468 75.76C522.468 75.76 522.608 75.62 522.888 75.34C522.888 75.34 522.935 75.34 523.028 75.34C523.122 75.2467 523.215 75.2 523.308 75.2C523.495 75.0133 523.682 74.92 523.868 74.92C523.868 74.8267 523.962 74.7333 524.148 74.64C524.335 74.4533 524.428 74.36 524.428 74.36C524.522 74.2667 524.615 74.22 524.708 74.22C524.895 74.1267 524.988 74.0333 524.988 73.94C525.175 73.94 525.548 73.6133 526.108 72.96C526.668 72.3067 527.042 71.5133 527.228 70.58C527.228 70.3933 526.948 70.5333 526.388 71C525.828 71.3733 525.548 71.56 525.548 71.56C525.268 71.6533 524.988 71.84 524.708 72.12C524.428 72.3067 524.195 72.4 524.008 72.4C523.915 72.4 523.775 72.4933 523.588 72.68C523.495 72.7733 523.402 72.82 523.308 72.82C523.215 72.82 523.168 72.8667 523.168 72.96C523.168 72.96 523.075 72.9133 522.888 72.82C522.795 73.0067 522.515 73.1933 522.048 73.38C521.582 73.5667 521.255 73.66 521.068 73.66H520.648L520.508 73.8C520.508 73.8 520.462 73.8467 520.368 73.94C520.275 73.94 520.182 73.94 520.088 73.94L519.108 74.08H518.968C518.875 74.08 518.782 74.1267 518.688 74.22C518.315 74.22 517.895 74.2667 517.428 74.36C516.962 74.4533 516.682 74.5 516.588 74.5H516.448C516.448 74.4067 516.402 74.36 516.308 74.36V74.5H515.608C515.328 74.5 515.002 74.4533 514.628 74.36C514.348 74.1733 514.115 74.08 513.928 74.08C513.835 74.08 513.788 74.1267 513.788 74.22C513.788 74.22 513.742 74.22 513.648 74.22H513.368C513.275 74.22 513.228 74.1733 513.228 74.08H512.528C512.528 73.8 512.435 73.7533 512.248 73.94H512.108C511.735 73.94 511.408 73.8 511.128 73.52C510.942 73.24 510.615 73.1 510.148 73.1L509.728 72.68C509.728 72.7733 509.682 72.8667 509.588 72.96C509.588 72.96 509.588 73.0067 509.588 73.1C509.588 73.1 509.635 73.1933 509.728 73.38C509.915 73.4733 510.008 73.5667 510.008 73.66L510.288 74.22L510.848 74.92L511.128 75.2C511.222 75.2933 511.268 75.34 511.268 75.34C511.362 75.34 511.455 75.4333 511.548 75.62C511.735 75.62 511.828 75.76 511.828 76.04C513.415 76.88 514.675 77.3 515.608 77.3ZM548.013 78.42C547.453 78.42 547.173 78.0933 547.173 77.44C547.173 76.9733 547.313 76.4133 547.593 75.76C548.339 74.1733 549.179 71.9333 550.113 69.04C551.139 66.1467 552.399 63.6733 553.893 61.62L560.893 47.2C560.333 47.2 559.773 47.34 559.213 47.62C558.746 47.9 558.513 48.1333 558.513 48.32C558.513 48.6933 557.999 49.0667 556.973 49.44C555.946 49.8133 555.386 50.0467 555.293 50.14C553.893 50.5133 552.586 50.9333 551.373 51.4C550.439 52.4267 549.506 53.4533 548.573 54.48C547.733 55.5067 546.939 56.5333 546.193 57.56C546.099 57.6533 546.006 57.7 545.913 57.7C545.073 58.6333 544.373 59.3333 543.813 59.8C543.253 60.2667 542.646 60.6867 541.993 61.06C541.619 61.34 541.246 61.4333 540.873 61.34C540.406 61.1533 540.359 60.9667 540.733 60.78C541.199 60.5933 541.946 59.94 542.973 58.82C543.999 57.7 544.793 56.86 545.353 56.3C545.819 56.02 545.959 56.02 545.773 56.3C545.679 56.58 545.819 56.5333 546.193 56.16L549.693 51.68L549.833 51.54C549.366 51.26 549.133 50.5133 549.133 49.3C549.133 48.3667 549.319 47.62 549.693 47.06C549.693 46.9667 549.786 46.92 549.973 46.92L552.913 46.08C553.193 46.08 553.379 46.0333 553.473 45.94C553.659 45.7533 553.846 45.52 554.033 45.24C554.313 44.8667 554.639 44.4 555.013 43.84L556.693 41.6L557.813 40.06C557.813 39.78 557.999 39.4533 558.373 39.08C558.839 38.6133 559.213 38.2867 559.493 38.1C559.866 37.54 560.099 37.12 560.193 36.84C560.379 36.4667 560.659 36 561.033 35.44C561.033 35.3467 561.173 35.3 561.453 35.3C561.733 35.2067 561.873 35.1133 561.873 35.02C561.966 34.0867 562.106 33.6667 562.293 33.76C562.573 33.76 562.713 33.62 562.713 33.34C562.713 33.06 562.899 32.8267 563.273 32.64L563.973 31.8C563.973 31.7067 564.113 31.52 564.393 31.24V31.1C564.393 30.9133 564.393 30.68 564.393 30.4C564.393 30.12 564.486 29.84 564.673 29.56C564.859 29.3733 564.999 29.28 565.093 29.28C565.186 29.28 565.233 29.28 565.233 29.28C565.233 29.1867 565.186 29.14 565.093 29.14C565.093 29.0467 565.093 29 565.093 29C565.093 28.6267 565.279 28.3933 565.653 28.3C566.026 28.2067 566.213 28.0667 566.213 27.88C566.399 26.5733 567.519 25.5933 569.573 24.94C571.626 24.2867 573.446 23.96 575.033 23.96C576.619 23.96 577.413 24.1933 577.413 24.66C577.413 24.8467 577.133 25.1733 576.573 25.64C576.293 25.7333 575.826 26.1533 575.173 26.9C574.519 27.5533 573.913 28.3467 573.353 29.28L572.233 30.96C572.139 31.1467 571.999 31.38 571.813 31.66C571.719 31.8467 571.579 32.0333 571.393 32.22C570.739 33.34 569.853 34.9267 568.733 36.98C567.706 38.94 566.586 41.1333 565.373 43.56L569.013 43.14C569.293 43.14 569.386 43.1867 569.293 43.28C569.293 43.3733 569.433 43.3733 569.713 43.28C570.179 43.28 570.506 43.2333 570.693 43.14C570.879 42.9533 571.206 42.8133 571.673 42.72C572.419 42.6267 573.259 42.58 574.193 42.58C575.219 42.4867 576.013 42.44 576.573 42.44C576.946 42.44 577.413 42.44 577.973 42.44C578.533 42.44 578.953 42.4867 579.233 42.58C579.419 42.58 579.466 42.6733 579.373 42.86C579.373 42.9533 579.419 43 579.513 43C579.699 43 579.839 42.9533 579.933 42.86C580.119 42.7667 580.306 42.72 580.493 42.72C580.586 42.6267 580.726 42.6267 580.913 42.72C581.193 42.72 581.379 42.72 581.473 42.72L582.873 43.14C583.433 43.2333 583.713 43.56 583.713 44.12C583.806 44.68 583.573 44.8667 583.013 44.68C582.639 44.4933 582.313 44.4 582.033 44.4H578.533C577.879 44.4 577.273 44.4 576.713 44.4C576.153 44.4 575.593 44.4467 575.033 44.54C574.846 44.6333 574.753 44.54 574.753 44.26C574.846 43.98 574.799 43.84 574.613 43.84C574.519 43.84 574.379 43.98 574.193 44.26C574.006 44.4467 573.866 44.54 573.773 44.54L573.073 44.96C571.579 45.3333 569.993 45.7533 568.313 46.22C566.633 46.5933 564.999 47.0133 563.413 47.48C562.013 50.3733 560.659 53.1267 559.353 55.74C558.139 58.26 557.206 60.22 556.553 61.62C556.366 62.18 556.273 62.5067 556.273 62.6C556.273 63.3467 556.693 63.72 557.533 63.72C558.093 63.72 558.653 63.58 559.213 63.3L560.613 62.74C562.853 60.6867 565.186 58.96 567.613 57.56C567.706 57.56 567.753 57.56 567.753 57.56C567.846 57.4667 567.939 57.42 568.033 57.42C568.313 57.42 568.499 57.6067 568.593 57.98C568.686 58.26 568.593 58.4933 568.313 58.68C565.606 60.1733 563.086 62.0867 560.753 64.42C560.659 64.6067 560.566 64.7933 560.473 64.98C560.379 65.1667 560.239 65.3533 560.053 65.54C559.866 65.7267 559.586 66.0533 559.213 66.52C558.933 66.9867 558.793 67.2667 558.793 67.36C558.699 67.64 558.559 67.7333 558.373 67.64C558.279 67.5467 557.999 67.6867 557.533 68.06C557.439 68.1533 557.346 68.34 557.253 68.62C557.253 68.9 557.206 69.1333 557.113 69.32C556.926 69.6 556.739 69.8333 556.553 70.02C556.366 70.1133 556.273 70.2067 556.273 70.3C556.179 70.6733 555.993 70.9067 555.713 71C555.526 71 555.339 71.0933 555.153 71.28C555.059 71.28 555.013 71.3267 555.013 71.42C555.013 72.26 554.919 72.6333 554.733 72.54C554.546 72.4467 554.406 72.54 554.313 72.82C553.939 73.1933 553.659 73.38 553.473 73.38C552.913 73.5667 552.679 73.7067 552.773 73.8C552.959 73.8933 553.099 73.9867 553.193 74.08C553.379 74.08 553.239 74.22 552.773 74.5C552.586 74.5933 552.399 74.8733 552.213 75.34C552.026 75.7133 551.839 75.9933 551.653 76.18C551.373 76.3667 551.093 76.5067 550.813 76.6C550.533 76.6933 550.299 76.88 550.113 77.16C549.273 78 548.573 78.42 548.013 78.42ZM555.993 45.52C556.366 45.4267 556.693 45.3333 556.973 45.24C557.346 45.1467 557.719 45.0067 558.093 44.82L562.293 44.12C563.413 41.88 564.393 39.8733 565.233 38.1C566.073 36.2333 566.679 34.88 567.053 34.04C567.053 34.04 566.959 33.9933 566.773 33.9C566.679 33.7133 566.633 33.5267 566.633 33.34C566.446 33.2467 566.213 33.1067 565.933 32.92C565.746 32.7333 565.559 32.5933 565.373 32.5L564.113 33.76L562.573 35.86C562.573 35.9533 562.433 36.0467 562.153 36.14C561.966 36.14 561.873 36.1867 561.873 36.28C561.873 36.56 561.733 36.84 561.453 37.12C561.266 37.4 561.079 37.4933 560.893 37.4L560.333 38.8C560.333 39.08 560.193 39.3133 559.913 39.5L558.933 40.76C558.933 40.8533 558.886 40.9467 558.793 41.04C558.793 41.04 558.793 41.1333 558.793 41.32C558.699 41.5067 558.559 41.74 558.373 42.02C558.186 42.3 557.953 42.58 557.673 42.86C557.579 42.86 557.533 42.9067 557.533 43C557.533 43 557.486 43 557.393 43L556.973 43.84C556.599 44.0267 556.366 44.12 556.273 44.12L556.133 44.4C556.133 44.96 556.086 45.3333 555.993 45.52Z" fill="#C8E3F7"/>
</g>
<defs>
<filter id="filter0_d_11_2" x="0.219971" y="0.440002" width="587.633" height="95.78" filterUnits="userSpaceOnUse" color-interpolation-filters="sRGB">
<feFlood flood-opacity="0" result="BackgroundImageFix"/>
<feColorMatrix in="SourceAlpha" type="matrix" values="0 0 0 0 0 0 0 0 0 0 0 0 0 0 0 0 0 0 127 0" result="hardAlpha"/>
<feOffset dy="4"/>
<feGaussianBlur stdDeviation="2"/>
<feComposite in2="hardAlpha" operator="out"/>
<feColorMatrix type="matrix" values="0 0 0 0 0 0 0 0 0 0 0 0 0 0 0 0 0 0 0.25 0"/>
<feBlend mode="normal" in2="BackgroundImageFix" result="effect1_dropShadow_11_2"/>
<feBlend mode="normal" in="SourceGraphic" in2="effect1_dropShadow_11_2" result="shape"/>
</filter>
</defs>
</svg>
